<svg width="34" height="34" viewBox="0 0 34 34" fill="none" xmlns="http://www.w3.org/2000/svg">
<path d="M18.4168 12.582H15.5835V9.83203H18.4168M18.4168 23.582H15.5835V15.332H18.4168M17.0002 2.95703C15.1398 2.95703 13.2976 3.31269 11.5788 4.00369C9.86003 4.69469 8.29831 5.70751 6.98282 6.98431C4.32605 9.56294 2.8335 13.0603 2.8335 16.707C2.8335 20.3538 4.32605 23.8511 6.98282 26.4297C8.29831 27.7066 9.86003 28.7194 11.5788 29.4104C13.2976 30.1014 15.1398 30.457 17.0002 30.457C20.7574 30.457 24.3607 29.0084 27.0175 26.4297C29.6743 23.8511 31.1668 20.3538 31.1668 16.707C31.1668 14.9014 30.8004 13.1134 30.0885 11.4451C29.3765 9.77691 28.333 8.26112 27.0175 6.98431C25.702 5.70751 24.1403 4.69469 22.4215 4.00369C20.7027 3.31269 18.8606 2.95703 17.0002 2.95703Z" fill="#2B8CA7"/>
</svg>
