<svg width="36" height="36" viewBox="0 0 36 36" fill="none" xmlns="http://www.w3.org/2000/svg">
<g clip-path="url(#clip0_123_841)">
<path d="M17.9625 33C15.8875 33 13.9375 32.606 12.1125 31.818C10.2875 31.031 8.7 29.9625 7.35 28.6125C6 27.2625 4.9375 25.675 4.1625 23.85C3.3875 22.025 3 20.075 3 18C3 15.925 3.394 13.975 4.182 12.15C4.969 10.325 6.0375 8.7375 7.3875 7.3875C8.7375 6.0375 10.325 4.9685 12.15 4.1805C13.975 3.3935 15.925 3 18 3C19.2 3 20.394 3.15 21.582 3.45C22.769 3.75 23.925 4.1875 25.05 4.7625C25.425 4.9625 25.6565 5.2685 25.7445 5.6805C25.8315 6.0935 25.7375 6.475 25.4625 6.825C25.2125 7.15 24.8875 7.3625 24.4875 7.4625C24.0875 7.5625 23.7125 7.5125 23.3625 7.3125C22.5125 6.8875 21.6375 6.5625 20.7375 6.3375C19.8375 6.1125 18.925 6 18 6C14.675 6 11.844 7.1685 9.507 9.5055C7.169 11.8435 6 14.675 6 18C6 21.325 7.169 24.1565 9.507 26.4945C11.844 28.8315 14.675 30 18 30C18.725 30 19.4125 29.9435 20.0625 29.8305C20.7125 29.7185 21.3375 29.55 21.9375 29.325C22.2625 29.2 22.5815 29.194 22.8945 29.307C23.2065 29.419 23.4875 29.6125 23.7375 29.8875C24.0625 30.2625 24.1565 30.6815 24.0195 31.1445C23.8815 31.6065 23.5625 31.9375 23.0625 32.1375C22.2875 32.4125 21.475 32.625 20.625 32.775C19.775 32.925 18.8875 33 17.9625 33ZM14.85 23.85L10.5375 19.5375C10.2625 19.2625 10.1315 18.9185 10.1445 18.5055C10.1565 18.0935 10.3 17.75 10.575 17.475C10.85 17.2 11.2 17.0625 11.625 17.0625C12.05 17.0625 12.4 17.2 12.675 17.475L15.9 20.7L29.8875 6.675C30.1625 6.4 30.5065 6.2685 30.9195 6.2805C31.3315 6.2935 31.675 6.4375 31.95 6.7125C32.225 6.9875 32.3625 7.3375 32.3625 7.7625C32.3625 8.1875 32.225 8.5375 31.95 8.8125L16.95 23.85C16.675 24.125 16.325 24.2625 15.9 24.2625C15.475 24.2625 15.125 24.125 14.85 23.85ZM30 30C29.575 30 29.219 29.856 28.932 29.568C28.644 29.281 28.5 28.925 28.5 28.5V25.5H25.5C25.075 25.5 24.719 25.356 24.432 25.068C24.144 24.781 24 24.425 24 24C24 23.575 24.144 23.2185 24.432 22.9305C24.719 22.6435 25.075 22.5 25.5 22.5H28.5V19.5C28.5 19.075 28.644 18.7185 28.932 18.4305C29.219 18.1435 29.575 18 30 18C30.425 18 30.781 18.1435 31.068 18.4305C31.356 18.7185 31.5 19.075 31.5 19.5V22.5H34.5C34.925 22.5 35.281 22.6435 35.568 22.9305C35.856 23.2185 36 23.575 36 24C36 24.425 35.856 24.781 35.568 25.068C35.281 25.356 34.925 25.5 34.5 25.5H31.5V28.5C31.5 28.925 31.356 29.281 31.068 29.568C30.781 29.856 30.425 30 30 30Z" fill="#34675C"/>
</g>
<defs>
<clipPath id="clip0_123_841">
<rect width="36" height="36" fill="white"/>
</clipPath>
</defs>
</svg>
