<svg width="27" height="31" viewBox="0 0 27 31" fill="none" xmlns="http://www.w3.org/2000/svg">
<path fill-rule="evenodd" clip-rule="evenodd" d="M0.87868 1.12868C1.44129 0.566071 2.20435 0.25 3 0.25H8.25C9.07843 0.25 9.75 0.921573 9.75 1.75V2.5H17.25V1.75C17.25 0.921573 17.9216 0.25 18.75 0.25H24C24.7956 0.25 25.5587 0.566069 26.1213 1.12868C26.6839 1.69129 27 2.45435 27 3.25V28C27 28.7956 26.6839 29.5587 26.1213 30.1213C25.5587 30.6839 24.7956 31 24 31H3C2.20435 31 1.44129 30.6839 0.87868 30.1213C0.316071 29.5587 0 28.7956 0 28V3.25C0 2.45435 0.316071 1.69129 0.87868 1.12868ZM20.25 3.25V4C20.25 4.82843 19.5784 5.5 18.75 5.5H8.25C7.42157 5.5 6.75 4.82843 6.75 4V3.25H3L3 28H24V3.25H20.25Z" fill="#34675C"/>
</svg>
