<svg width="26" height="27" viewBox="0 0 26 27" fill="none" xmlns="http://www.w3.org/2000/svg">
<path d="M0.473736 22.5036H25.5264V20.0531H24.2737V11.5146C24.2737 5.40325 19.2256 0.449707 13.0001 0.449707C6.77447 0.449707 1.72637 5.40325 1.72637 11.5146V20.0531H0.473736V22.5036ZM21.7685 20.0531H4.23163V11.5146C4.23163 6.75711 8.15738 2.90014 13.0001 2.90014C17.8427 2.90014 21.7685 6.75711 21.7685 11.5146V20.0531ZM16.1316 23.7288H9.86847C9.86847 24.5411 10.1984 25.3202 10.7857 25.8947C11.373 26.4691 12.1695 26.7918 13.0001 26.7918C13.8306 26.7918 14.6271 26.4691 15.2144 25.8947C15.8017 25.3202 16.1316 24.5411 16.1316 23.7288Z" fill="#2B8CA7"/>
</svg>
