<svg width="28" height="32" viewBox="0 0 28 32" fill="none" xmlns="http://www.w3.org/2000/svg">
<path d="M0 26.3675H28V23.5458H26.6V13.7136C26.6 6.67628 20.958 0.972198 14 0.972198C7.042 0.972198 1.4 6.67628 1.4 13.7136V23.5458H0V26.3675ZM23.8 23.5458H4.2V13.7136C4.2 8.23527 8.5876 3.7939 14 3.7939C19.4124 3.7939 23.8 8.23527 23.8 13.7136V23.5458ZM17.5 27.7784H10.5C10.5 28.7139 10.8687 29.611 11.5251 30.2725C12.1815 30.9339 13.0717 31.3055 14 31.3055C14.9283 31.3055 15.8185 30.9339 16.4749 30.2725C17.1313 29.611 17.5 28.7139 17.5 27.7784Z" fill="#D3D3D3"/>
</svg>
