<svg width="24" height="26" viewBox="0 0 24 26" fill="none" xmlns="http://www.w3.org/2000/svg">
<path d="M24 21.7674H0V19.3488H1.2V10.9212C1.2 4.88921 6.036 0 12 0C17.964 0 22.8 4.88921 22.8 10.9212V19.3488H24V21.7674ZM3.6 19.3488H20.4V10.9212C20.4 6.22549 16.6392 2.4186 12 2.4186C7.3608 2.4186 3.6 6.22549 3.6 10.9212V19.3488ZM9 22.9767H15C15 23.7786 14.6839 24.5475 14.1213 25.1145C13.5587 25.6815 12.7956 26 12 26C11.2044 26 10.4413 25.6815 9.87868 25.1145C9.31607 24.5475 9 23.7786 9 22.9767Z" fill="white"/>
</svg>
