<svg width="15" height="27" viewBox="0 0 15 27" fill="none" xmlns="http://www.w3.org/2000/svg">
<path fill-rule="evenodd" clip-rule="evenodd" d="M0.75 1.5C0.75 0.671573 1.42157 0 2.25 0H12.75C13.5784 0 14.25 0.671573 14.25 1.5V6C14.25 6.82843 13.5784 7.5 12.75 7.5H2.25C1.42157 7.5 0.75 6.82843 0.75 6V1.5ZM3.75 3V4.5H11.25V3H3.75ZM10.8106 11.6893C11.3964 12.275 11.3965 13.2248 10.8107 13.8106L7.371 17.2507H11.253C11.8598 17.2507 12.4068 17.6163 12.6389 18.1769C12.871 18.7375 12.7425 19.3827 12.3134 19.8117L6.31039 25.8117C5.72446 26.3973 4.77471 26.3971 4.18907 25.8111C3.60343 25.2252 3.60367 24.2755 4.1896 23.6898L7.6304 20.2507H3.75C3.14332 20.2507 2.59638 19.8853 2.3642 19.3248C2.13202 18.7643 2.26032 18.1192 2.68927 17.6902L8.68927 11.6894C9.27502 11.1036 10.2248 11.1035 10.8106 11.6893Z" fill="#34675C"/>
</svg>
