<svg width="21" height="21" viewBox="0 0 21 21" fill="none" xmlns="http://www.w3.org/2000/svg">
<path d="M9.275 14.525L15.4437 8.35625L14.2187 7.13125L9.275 12.075L6.78125 9.58125L5.55625 10.8062L9.275 14.525ZM10.5 19.25C9.28958 19.25 8.15208 19.0202 7.0875 18.5605C6.02292 18.1014 5.09687 17.4781 4.30937 16.6906C3.52187 15.9031 2.89858 14.9771 2.4395 13.9125C1.97983 12.8479 1.75 11.7104 1.75 10.5C1.75 9.28958 1.97983 8.15208 2.4395 7.0875C2.89858 6.02292 3.52187 5.09687 4.30937 4.30937C5.09687 3.52187 6.02292 2.89829 7.0875 2.43862C8.15208 1.97954 9.28958 1.75 10.5 1.75C11.7104 1.75 12.8479 1.97954 13.9125 2.43862C14.9771 2.89829 15.9031 3.52187 16.6906 4.30937C17.4781 5.09687 18.1014 6.02292 18.5605 7.0875C19.0202 8.15208 19.25 9.28958 19.25 10.5C19.25 11.7104 19.0202 12.8479 18.5605 13.9125C18.1014 14.9771 17.4781 15.9031 16.6906 16.6906C15.9031 17.4781 14.9771 18.1014 13.9125 18.5605C12.8479 19.0202 11.7104 19.25 10.5 19.25ZM10.5 17.5C12.4542 17.5 14.1094 16.8219 15.4656 15.4656C16.8219 14.1094 17.5 12.4542 17.5 10.5C17.5 8.54583 16.8219 6.89062 15.4656 5.53437C14.1094 4.17812 12.4542 3.5 10.5 3.5C8.54583 3.5 6.89062 4.17812 5.53437 5.53437C4.17812 6.89062 3.5 8.54583 3.5 10.5C3.5 12.4542 4.17812 14.1094 5.53437 15.4656C6.89062 16.8219 8.54583 17.5 10.5 17.5Z" fill="#2B8CA7"/>
</svg>
