<svg width="30" height="30" viewBox="0 0 30 30" fill="none" xmlns="http://www.w3.org/2000/svg">
<path fill-rule="evenodd" clip-rule="evenodd" d="M9.4675 5.42C9.80991 4.90633 10.2738 4.48514 10.8181 4.19382C11.3624 3.9025 11.9702 3.75004 12.5875 3.75H17.4125C18.0298 3.75004 18.6376 3.9025 19.1819 4.19382C19.7262 4.48514 20.1901 4.90633 20.5325 5.42L21.5475 6.94375C21.6617 7.1149 21.8164 7.25521 21.9978 7.35224C22.1792 7.44928 22.3818 7.50003 22.5875 7.5H23.75C24.7446 7.5 25.6984 7.89509 26.4017 8.59835C27.1049 9.30161 27.5 10.2554 27.5 11.25V22.5C27.5 23.4946 27.1049 24.4484 26.4017 25.1517C25.6984 25.8549 24.7446 26.25 23.75 26.25H6.25C5.25544 26.25 4.30161 25.8549 3.59835 25.1517C2.89509 24.4484 2.5 23.4946 2.5 22.5V11.25C2.5 10.2554 2.89509 9.30161 3.59835 8.59835C4.30161 7.89509 5.25544 7.5 6.25 7.5H7.4125C7.61824 7.50003 7.82081 7.44928 8.00223 7.35224C8.18365 7.25521 8.33831 7.1149 8.4525 6.94375L9.4675 5.42ZM12.5 16.25C12.5 15.587 12.7634 14.9511 13.2322 14.4822C13.7011 14.0134 14.337 13.75 15 13.75C15.663 13.75 16.2989 14.0134 16.7678 14.4822C17.2366 14.9511 17.5 15.587 17.5 16.25C17.5 16.913 17.2366 17.5489 16.7678 18.0178C16.2989 18.4866 15.663 18.75 15 18.75C14.337 18.75 13.7011 18.4866 13.2322 18.0178C12.7634 17.5489 12.5 16.913 12.5 16.25ZM15 11.25C13.6739 11.25 12.4021 11.7768 11.4645 12.7145C10.5268 13.6521 10 14.9239 10 16.25C10 17.5761 10.5268 18.8479 11.4645 19.7855C12.4021 20.7232 13.6739 21.25 15 21.25C16.3261 21.25 17.5979 20.7232 18.5355 19.7855C19.4732 18.8479 20 17.5761 20 16.25C20 14.9239 19.4732 13.6521 18.5355 12.7145C17.5979 11.7768 16.3261 11.25 15 11.25Z" fill="#2B8CA7"/>
</svg>
