<svg width="36" height="36" viewBox="0 0 36 36" fill="none" xmlns="http://www.w3.org/2000/svg">
<path fill-rule="evenodd" clip-rule="evenodd" d="M5.37868 4.62868C5.94129 4.06607 6.70435 3.75 7.5 3.75H12.75C13.5784 3.75 14.25 4.42157 14.25 5.25V6H21.75V5.25C21.75 4.42157 22.4216 3.75 23.25 3.75H28.5C29.2956 3.75 30.0587 4.06607 30.6213 4.62868C31.1839 5.19129 31.5 5.95435 31.5 6.75V31.5C31.5 32.2956 31.1839 33.0587 30.6213 33.6213C30.0587 34.1839 29.2956 34.5 28.5 34.5H7.5C6.70435 34.5 5.94129 34.1839 5.37868 33.6213C4.81607 33.0587 4.5 32.2956 4.5 31.5V6.75C4.5 5.95435 4.81607 5.19129 5.37868 4.62868ZM24.75 6.75V7.5C24.75 8.32843 24.0784 9 23.25 9H12.75C11.9216 9 11.25 8.32843 11.25 7.5V6.75H7.5L7.5 31.5H28.5V6.75H24.75Z" fill="#2B8CA7"/>
<path fill-rule="evenodd" clip-rule="evenodd" d="M11.25 3C11.25 2.17157 11.9216 1.5 12.75 1.5H23.25C24.0784 1.5 24.75 2.17157 24.75 3V7.5C24.75 8.32843 24.0784 9 23.25 9H12.75C11.9216 9 11.25 8.32843 11.25 7.5V3ZM14.25 4.5V6H21.75V4.5H14.25ZM21.3106 13.1893C21.8964 13.775 21.8965 14.7248 21.3107 15.3106L17.871 18.7507H21.753C22.3598 18.7507 22.9068 19.1163 23.1389 19.6769C23.371 20.2375 23.2425 20.8827 22.8134 21.3117L16.8104 27.3117C16.2245 27.8973 15.2747 27.8971 14.6891 27.3111C14.1034 26.7252 14.1037 25.7755 14.6896 25.1898L18.1304 21.7507H14.25C13.6433 21.7507 13.0964 21.3853 12.8642 20.8248C12.632 20.2643 12.7603 19.6192 13.1893 19.1902L19.1893 13.1894C19.775 12.6036 20.7248 12.6035 21.3106 13.1893Z" fill="#2B8CA7"/>
</svg>
