<svg width="25" height="25" viewBox="0 0 25 25" fill="none" xmlns="http://www.w3.org/2000/svg">
<path d="M12.5002 13.9584L15.521 16.9792C15.712 17.1702 15.955 17.2657 16.2502 17.2657C16.5453 17.2657 16.7884 17.1702 16.9793 16.9792C17.1703 16.7882 17.2658 16.5452 17.2658 16.25C17.2658 15.9549 17.1703 15.7118 16.9793 15.5209L13.9585 12.5L16.9793 9.47921C17.1703 9.28824 17.2658 9.04518 17.2658 8.75004C17.2658 8.4549 17.1703 8.21185 16.9793 8.02087C16.7884 7.8299 16.5453 7.73442 16.2502 7.73442C15.955 7.73442 15.712 7.8299 15.521 8.02087L12.5002 11.0417L9.47933 8.02087C9.28836 7.8299 9.0453 7.73442 8.75016 7.73442C8.45502 7.73442 8.21197 7.8299 8.021 8.02087C7.83002 8.21185 7.73454 8.4549 7.73454 8.75004C7.73454 9.04518 7.83002 9.28824 8.021 9.47921L11.0418 12.5L8.021 15.5209C7.83002 15.7118 7.73454 15.9549 7.73454 16.25C7.73454 16.5452 7.83002 16.7882 8.021 16.9792C8.21197 17.1702 8.45502 17.2657 8.75016 17.2657C9.0453 17.2657 9.28836 17.1702 9.47933 16.9792L12.5002 13.9584ZM12.5002 22.9167C11.0592 22.9167 9.70502 22.6431 8.43766 22.0959C7.1703 21.5487 6.06787 20.8066 5.13037 19.8698C4.19287 18.9323 3.45086 17.8299 2.90433 16.5625C2.3578 15.2952 2.08419 13.941 2.0835 12.5C2.0835 11.0591 2.35711 9.7049 2.90433 8.43754C3.45155 7.17018 4.19357 6.06775 5.13037 5.13025C6.06787 4.19275 7.1703 3.45074 8.43766 2.90421C9.70502 2.35768 11.0592 2.08407 12.5002 2.08337C13.9411 2.08337 15.2953 2.35699 16.5627 2.90421C17.83 3.45143 18.9325 4.19344 19.87 5.13025C20.8075 6.06775 21.5498 7.17018 22.097 8.43754C22.6443 9.7049 22.9175 11.0591 22.9168 12.5C22.9168 13.941 22.6432 15.2952 22.096 16.5625C21.5488 17.8299 20.8068 18.9323 19.87 19.8698C18.9325 20.8073 17.83 21.5497 16.5627 22.0969C15.2953 22.6441 13.9411 22.9174 12.5002 22.9167ZM12.5002 20.8334C14.8266 20.8334 16.797 20.0261 18.4116 18.4115C20.0262 16.7969 20.8335 14.8264 20.8335 12.5C20.8335 10.1737 20.0262 8.20317 18.4116 6.58858C16.797 4.974 14.8266 4.16671 12.5002 4.16671C10.1738 4.16671 8.20329 4.974 6.5887 6.58858C4.97412 8.20317 4.16683 10.1737 4.16683 12.5C4.16683 14.8264 4.97412 16.7969 6.5887 18.4115C8.20329 20.0261 10.1738 20.8334 12.5002 20.8334Z" fill="white"/>
</svg>
