<svg width="7" height="7" viewBox="0 0 7 7" fill="none" xmlns="http://www.w3.org/2000/svg">
<path d="M3.5 7C2.80777 7 2.13108 6.79473 1.55551 6.41014C0.979934 6.02556 0.531331 5.47893 0.266424 4.83939C0.00151721 4.19985 -0.0677954 3.49612 0.0672528 2.81719C0.202301 2.13825 0.535643 1.51461 1.02513 1.02513C1.51461 0.535643 2.13825 0.202301 2.81719 0.0672528C3.49612 -0.0677954 4.19985 0.00151721 4.83939 0.266424C5.47893 0.531331 6.02556 0.979934 6.41014 1.55551C6.79473 2.13108 7 2.80777 7 3.5C6.99894 4.42793 6.62985 5.31756 5.97371 5.97371C5.31756 6.62985 4.42793 6.99894 3.5 7ZM3.5 2C3.20333 2 2.91332 2.08798 2.66665 2.2528C2.41997 2.41762 2.22771 2.65189 2.11418 2.92598C2.00065 3.20007 1.97095 3.50167 2.02882 3.79264C2.0867 4.08361 2.22956 4.35088 2.43934 4.56066C2.64912 4.77044 2.9164 4.9133 3.20737 4.97118C3.49834 5.02906 3.79994 4.99935 4.07403 4.88582C4.34811 4.77229 4.58238 4.58003 4.74721 4.33336C4.91203 4.08668 5 3.79667 5 3.5C4.99947 3.10234 4.84127 2.72112 4.56008 2.43993C4.27889 2.15874 3.89766 2.00053 3.5 2Z" fill="white"/>
</svg>
