<svg width="17" height="17" viewBox="0 0 17 17" fill="none" xmlns="http://www.w3.org/2000/svg">
<path d="M8.5 17C6.81886 17 5.17547 16.5015 3.77766 15.5675C2.37984 14.6335 1.29037 13.306 0.647028 11.7528C0.00368291 10.1996 -0.164645 8.49057 0.163329 6.84174C0.491303 5.1929 1.30085 3.67834 2.4896 2.4896C3.67834 1.30085 5.1929 0.491303 6.84174 0.163329C8.49057 -0.164645 10.1996 0.00368291 11.7528 0.647028C13.306 1.29037 14.6335 2.37984 15.5675 3.77766C16.5015 5.17547 17 6.81886 17 8.5C16.9974 10.7535 16.101 12.914 14.5075 14.5075C12.914 16.101 10.7535 16.9974 8.5 17ZM8.5 2C7.21443 2 5.95772 2.38122 4.8888 3.09545C3.81988 3.80968 2.98676 4.82484 2.49479 6.01256C2.00282 7.20028 1.87409 8.50721 2.1249 9.76809C2.3757 11.029 2.99477 12.1872 3.90381 13.0962C4.81285 14.0052 5.97104 14.6243 7.23192 14.8751C8.49279 15.1259 9.79973 14.9972 10.9874 14.5052C12.1752 14.0133 13.1903 13.1801 13.9046 12.1112C14.6188 11.0423 15 9.78558 15 8.5C14.9982 6.77667 14.3127 5.12444 13.0942 3.90586C11.8756 2.68727 10.2233 2.00186 8.5 2Z" fill="white"/>
</svg>
