<svg width="34" height="34" viewBox="0 0 34 34" fill="none" xmlns="http://www.w3.org/2000/svg">
<path d="M30.8125 12.75C30.8125 12.1864 30.5886 11.6459 30.1901 11.2474C29.7916 10.8489 29.2511 10.625 28.6875 10.625H24.4375V6.375C24.4375 5.81141 24.2136 5.27091 23.8151 4.8724C23.4166 4.47388 22.8761 4.25 22.3125 4.25H5.3125C4.74891 4.25 4.20841 4.47388 3.8099 4.8724C3.41138 5.27091 3.1875 5.81141 3.1875 6.375V23.375C3.18812 23.5749 3.24512 23.7706 3.35195 23.9395C3.45878 24.1085 3.6111 24.2439 3.79142 24.3301C3.97173 24.4164 4.17273 24.4501 4.37132 24.4272C4.5699 24.4044 4.75802 24.326 4.91406 24.2011L9.5625 20.4531V24.4375C9.5625 25.0011 9.78638 25.5416 10.1849 25.9401C10.5834 26.3386 11.1239 26.5625 11.6875 26.5625H24.1174L29.0859 30.5761C29.2739 30.7282 29.5082 30.8116 29.75 30.8125C30.0318 30.8125 30.302 30.7006 30.5013 30.5013C30.7006 30.302 30.8125 30.0318 30.8125 29.75V12.75ZM25.1613 24.6739C24.9733 24.5218 24.7391 24.4384 24.4973 24.4375H11.6875V20.1875H22.3125C22.8761 20.1875 23.4166 19.9636 23.8151 19.5651C24.2136 19.1666 24.4375 18.6261 24.4375 18.0625V12.75H28.6875V27.5254L25.1613 24.6739Z" fill="#C19B47"/>
</svg>
