<svg width="50" height="50" viewBox="0 0 50 50" fill="none" xmlns="http://www.w3.org/2000/svg">
<circle cx="25" cy="25" r="25" fill="#D9D9D9"/>
<path d="M38 22C38 21.4696 37.7893 20.9609 37.4142 20.5858C37.0391 20.2107 36.5304 20 36 20H32V16C32 15.4696 31.7893 14.9609 31.4142 14.5858C31.0391 14.2107 30.5304 14 30 14H14C13.4696 14 12.9609 14.2107 12.5858 14.5858C12.2107 14.9609 12 15.4696 12 16V32C12.0006 32.1881 12.0542 32.3723 12.1548 32.5313C12.2553 32.6903 12.3987 32.8177 12.5684 32.8989C12.7381 32.9801 12.9273 33.0118 13.1142 32.9903C13.3011 32.9689 13.4781 32.8951 13.625 32.7775L18 29.25V33C18 33.5304 18.2107 34.0391 18.5858 34.4142C18.9609 34.7893 19.4696 35 20 35H31.6987L36.375 38.7775C36.5519 38.9206 36.7724 38.9991 37 39C37.2652 39 37.5196 38.8946 37.7071 38.7071C37.8946 38.5196 38 38.2652 38 38V22ZM32.6812 33.2225C32.5043 33.0794 32.2838 33.0009 32.0562 33H20V29H30C30.5304 29 31.0391 28.7893 31.4142 28.4142C31.7893 28.0391 32 27.5304 32 27V22H36V35.9062L32.6812 33.2225Z" fill="#C19B47"/>
</svg>
