<svg width="38" height="38" viewBox="0 0 38 38" fill="none" xmlns="http://www.w3.org/2000/svg">
<path d="M34.4375 14.25C34.4375 13.6201 34.1873 13.016 33.7419 12.5706C33.2965 12.1252 32.6924 11.875 32.0625 11.875H27.3125V7.125C27.3125 6.49511 27.0623 5.89102 26.6169 5.44562C26.1715 5.00022 25.5674 4.75 24.9375 4.75H5.9375C5.30761 4.75 4.70352 5.00022 4.25812 5.44562C3.81272 5.89102 3.5625 6.49511 3.5625 7.125V26.125C3.5632 26.3484 3.6269 26.5671 3.7463 26.7559C3.86569 26.9448 4.03594 27.0961 4.23747 27.1925C4.439 27.2889 4.66364 27.3265 4.88559 27.301C5.10754 27.2755 5.31779 27.1879 5.49219 27.0483L10.6875 22.8594V27.3125C10.6875 27.9424 10.9377 28.5465 11.3831 28.9919C11.8285 29.4373 12.4326 29.6875 13.0625 29.6875H26.9548L32.5078 34.1733C32.7179 34.3432 32.9797 34.4364 33.25 34.4375C33.5649 34.4375 33.867 34.3124 34.0897 34.0897C34.3124 33.867 34.4375 33.5649 34.4375 33.25V14.25ZM28.1215 27.5767C27.9114 27.4068 27.6496 27.3136 27.3793 27.3125H13.0625V22.5625H24.9375C25.5674 22.5625 26.1715 22.3123 26.6169 21.8669C27.0623 21.4215 27.3125 20.8174 27.3125 20.1875V14.25H32.0625V30.7637L28.1215 27.5767Z" fill="white"/>
</svg>
