<svg width="35" height="35" viewBox="0 0 35 35" fill="none" xmlns="http://www.w3.org/2000/svg">
<path d="M31.7188 13.125C31.7188 12.5448 31.4883 11.9884 31.078 11.5782C30.6678 11.168 30.1114 10.9375 29.5312 10.9375H25.1562V6.5625C25.1562 5.98234 24.9258 5.42594 24.5155 5.0157C24.1053 4.60547 23.5489 4.375 22.9688 4.375H5.46875C4.88859 4.375 4.33219 4.60547 3.92195 5.0157C3.51172 5.42594 3.28125 5.98234 3.28125 6.5625V24.0625C3.28189 24.2683 3.34057 24.4697 3.45054 24.6436C3.56051 24.8175 3.71731 24.9569 3.90293 25.0457C4.08855 25.1345 4.29546 25.1692 4.49988 25.1457C4.70431 25.1222 4.89796 25.0415 5.05859 24.9129L9.84375 21.0547V25.1562C9.84375 25.7364 10.0742 26.2928 10.4845 26.703C10.8947 27.1133 11.4511 27.3438 12.0312 27.3438H24.8268L29.9414 31.4754C30.1349 31.6319 30.3761 31.7178 30.625 31.7188C30.9151 31.7188 31.1933 31.6035 31.3984 31.3984C31.6035 31.1933 31.7188 30.9151 31.7188 30.625V13.125ZM25.9014 25.3996C25.7078 25.2431 25.4667 25.1572 25.2178 25.1562H12.0312V20.7812H22.9688C23.5489 20.7812 24.1053 20.5508 24.5155 20.1405C24.9258 19.7303 25.1562 19.1739 25.1562 18.5938V13.125H29.5312V28.335L25.9014 25.3996Z" fill="#D3D3D3"/>
</svg>
