<svg width="40" height="40" viewBox="0 0 40 40" fill="none" xmlns="http://www.w3.org/2000/svg">
<path d="M16.1818 30.0404L16.8889 30.7476L17.596 30.0404L33.2627 14.3738L33.9698 13.6667L33.2627 12.9596L30.1516 9.84845L29.4444 9.14134L28.7373 9.84845L16.8889 21.6969L11.2627 16.0707L10.5556 15.3636L9.84845 16.0707L6.73734 19.1818L6.03023 19.8889L6.73734 20.596L16.1818 30.0404ZM4.44444 39C3.48974 39 2.69688 38.6721 2.01201 37.9889C1.32815 37.3038 1 36.5107 1 35.5556V4.44444C1 3.48953 1.32801 2.69653 2.01155 2.01155C2.69653 1.32801 3.48953 1 4.44444 1H35.5556C36.5107 1 37.3038 1.32815 37.9889 2.01201C38.6721 2.69688 39 3.48974 39 4.44444V35.5556C39 36.5105 38.672 37.3035 37.9884 37.9884C37.3035 38.672 36.5105 39 35.5556 39H4.44444Z" stroke="#34675C" stroke-width="2"/>
</svg>
