<svg width="30" height="30" viewBox="0 0 30 30" fill="none" xmlns="http://www.w3.org/2000/svg">
<path d="M13.0167 21.5167L23.0042 11.5292L21.0208 9.54583L13.0167 17.55L8.97918 13.5125L6.99584 15.4958L13.0167 21.5167ZM15 29.1667C13.0403 29.1667 11.1986 28.7946 9.47501 28.0503C7.7514 27.3071 6.25209 26.2979 4.97709 25.0229C3.70209 23.7479 2.69295 22.2486 1.94968 20.525C1.20545 18.8014 0.833344 16.9597 0.833344 15C0.833344 13.0403 1.20545 11.1986 1.94968 9.475C2.69295 7.75139 3.70209 6.25209 4.97709 4.97709C6.25209 3.70209 7.7514 2.69247 9.47501 1.94825C11.1986 1.20497 13.0403 0.833336 15 0.833336C16.9597 0.833336 18.8014 1.20497 20.525 1.94825C22.2486 2.69247 23.7479 3.70209 25.0229 4.97709C26.2979 6.25209 27.3071 7.75139 28.0503 9.475C28.7946 11.1986 29.1667 13.0403 29.1667 15C29.1667 16.9597 28.7946 18.8014 28.0503 20.525C27.3071 22.2486 26.2979 23.7479 25.0229 25.0229C23.7479 26.2979 22.2486 27.3071 20.525 28.0503C18.8014 28.7946 16.9597 29.1667 15 29.1667ZM15 26.3333C18.1639 26.3333 20.8438 25.2354 23.0396 23.0396C25.2354 20.8438 26.3333 18.1639 26.3333 15C26.3333 11.8361 25.2354 9.15625 23.0396 6.96042C20.8438 4.76459 18.1639 3.66667 15 3.66667C11.8361 3.66667 9.15626 4.76459 6.96043 6.96042C4.76459 9.15625 3.66668 11.8361 3.66668 15C3.66668 18.1639 4.76459 20.8438 6.96043 23.0396C9.15626 25.2354 11.8361 26.3333 15 26.3333Z" fill="#F26800"/>
</svg>
