<svg width="46" height="46" viewBox="0 0 46 46" fill="none" xmlns="http://www.w3.org/2000/svg">
<path d="M6.45079 39.5495C7.08085 40.178 7.81024 40.4796 8.6885 40.4796H37.3107C38.1892 40.4796 38.9188 40.1778 39.549 39.549C40.1778 38.9188 40.4796 38.1892 40.4796 37.3107V8.6885C40.4796 7.81024 40.178 7.08085 39.5495 6.45079C39.5495 6.45078 39.5495 6.45076 39.5495 6.45075M6.45079 39.5495L5.7997 5.7997C6.60112 4.99964 7.56405 4.59961 8.6885 4.59961H37.3107C38.4352 4.59961 39.3981 4.99964 40.1995 5.7997L39.5484 6.44968C39.5488 6.45004 39.5491 6.45039 39.5495 6.45075M6.45079 39.5495C6.45077 39.5495 6.45075 39.5495 6.45073 39.5495C5.82153 38.9192 5.51961 38.1895 5.51961 37.3107V8.6885C5.51961 7.80998 5.82138 7.08042 6.45024 6.45024M6.45079 39.5495L5.7997 40.1995C6.60112 40.9996 7.56405 41.3996 8.6885 41.3996H37.3107C38.4352 41.3996 39.3981 40.9996 40.1995 40.1995L6.45024 6.45024M39.5495 6.45075C38.9192 5.82154 38.1895 5.51961 37.3107 5.51961H8.6885C7.80998 5.51961 7.08042 5.82138 6.45024 6.45024M39.5495 6.45075L6.45024 6.45024M19.4868 32.2368L20.1374 32.8874L20.7879 32.2368L35.2013 17.8235L35.8518 17.1729L35.2013 16.5224L32.339 13.6602L31.6885 13.0096L31.038 13.6602L20.1374 24.5608L14.9613 19.3846L14.3107 18.7341L13.6602 19.3846L10.798 22.2468L10.1474 22.8974L10.798 23.5479L19.4868 32.2368Z" stroke="#2B8CA7" stroke-width="1.84"/>
</svg>
