<svg width="40" height="40" viewBox="0 0 40 40" fill="none" xmlns="http://www.w3.org/2000/svg">
<path d="M17.6654 27.6666L29.4154 15.9166L27.082 13.5833L17.6654 22.9999L12.9154 18.2499L10.582 20.5833L17.6654 27.6666ZM19.9987 36.6666C17.6931 36.6666 15.5265 36.2288 13.4987 35.3533C11.4709 34.4788 9.70703 33.2916 8.20703 31.7916C6.70703 30.2916 5.51981 28.5277 4.64536 26.4999C3.76981 24.4721 3.33203 22.3055 3.33203 19.9999C3.33203 17.6944 3.76981 15.5277 4.64536 13.4999C5.51981 11.4721 6.70703 9.70825 8.20703 8.20825C9.70703 6.70825 11.4709 5.52047 13.4987 4.64492C15.5265 3.77047 17.6931 3.33325 19.9987 3.33325C22.3043 3.33325 24.4709 3.77047 26.4987 4.64492C28.5265 5.52047 30.2904 6.70825 31.7904 8.20825C33.2904 9.70825 34.4776 11.4721 35.352 13.4999C36.2276 15.5277 36.6654 17.6944 36.6654 19.9999C36.6654 22.3055 36.2276 24.4721 35.352 26.4999C34.4776 28.5277 33.2904 30.2916 31.7904 31.7916C30.2904 33.2916 28.5265 34.4788 26.4987 35.3533C24.4709 36.2288 22.3043 36.6666 19.9987 36.6666ZM19.9987 33.3333C23.7209 33.3333 26.8737 32.0416 29.457 29.4583C32.0404 26.8749 33.332 23.7221 33.332 19.9999C33.332 16.2777 32.0404 13.1249 29.457 10.5416C26.8737 7.95825 23.7209 6.66659 19.9987 6.66659C16.2765 6.66659 13.1237 7.95825 10.5404 10.5416C7.95703 13.1249 6.66536 16.2777 6.66536 19.9999C6.66536 23.7221 7.95703 26.8749 10.5404 29.4583C13.1237 32.0416 16.2765 33.3333 19.9987 33.3333Z" fill="#C19B47"/>
</svg>
