<svg width="30" height="30" viewBox="0 0 30 30" fill="none" xmlns="http://www.w3.org/2000/svg">
<path d="M13.5833 22.0833H16.4167V16.4167H22.0833V13.5833H16.4167V7.91668H13.5833V13.5833H7.91668V16.4167H13.5833V22.0833ZM15 29.1667C13.0403 29.1667 11.1986 28.7946 9.47501 28.0503C7.7514 27.3061 6.25209 26.297 4.97709 25.0229C3.70209 23.7479 2.69295 22.2486 1.94968 20.525C1.2064 18.8014 0.834288 16.9597 0.833344 15C0.833344 13.0403 1.20545 11.1986 1.94968 9.47501C2.6939 7.7514 3.70304 6.25209 4.97709 4.97709C6.25209 3.70209 7.7514 2.69295 9.47501 1.94968C11.1986 1.2064 13.0403 0.834288 15 0.833344C16.9597 0.833344 18.8014 1.20545 20.525 1.94968C22.2486 2.6939 23.7479 3.70304 25.0229 4.97709C26.2979 6.25209 27.3075 7.7514 28.0518 9.47501C28.796 11.1986 29.1676 13.0403 29.1667 15C29.1667 16.9597 28.7946 18.8014 28.0503 20.525C27.3061 22.2486 26.297 23.7479 25.0229 25.0229C23.7479 26.2979 22.2486 27.3075 20.525 28.0518C18.8014 28.796 16.9597 29.1676 15 29.1667ZM15 26.3333C18.1639 26.3333 20.8438 25.2354 23.0396 23.0396C25.2354 20.8438 26.3333 18.1639 26.3333 15C26.3333 11.8361 25.2354 9.15626 23.0396 6.96043C20.8438 4.76459 18.1639 3.66668 15 3.66668C11.8361 3.66668 9.15626 4.76459 6.96043 6.96043C4.76459 9.15626 3.66668 11.8361 3.66668 15C3.66668 18.1639 4.76459 20.8438 6.96043 23.0396C9.15626 25.2354 11.8361 26.3333 15 26.3333Z" fill="white"/>
</svg>
