<svg width="39" height="38" viewBox="0 0 39 38" fill="none" xmlns="http://www.w3.org/2000/svg">
<path d="M17.7422 26.9167H20.9089V20.5834H27.2422V17.4167H20.9089V11.0834H17.7422V17.4167H11.4089V20.5834H17.7422V26.9167ZM19.3256 34.8334C17.1353 34.8334 15.0769 34.4175 13.1506 33.5857C11.2242 32.7539 9.54847 31.6261 8.12347 30.2021C6.69847 28.7771 5.57061 27.1014 4.73988 25.175C3.90916 23.2486 3.49327 21.1903 3.49222 19C3.49222 16.8097 3.90811 14.7514 4.73988 12.825C5.57166 10.8986 6.69952 9.22294 8.12347 7.79794C9.54847 6.37294 11.2242 5.24508 13.1506 4.41435C15.0769 3.58363 17.1353 3.16774 19.3256 3.16669C21.5158 3.16669 23.5742 3.58258 25.5006 4.41435C27.4269 5.24613 29.1026 6.37399 30.5276 7.79794C31.9526 9.22294 33.081 10.8986 33.9128 12.825C34.7446 14.7514 35.1599 16.8097 35.1589 19C35.1589 21.1903 34.743 23.2486 33.9112 25.175C33.0794 27.1014 31.9516 28.7771 30.5276 30.2021C29.1026 31.6271 27.4269 32.7555 25.5006 33.5873C23.5742 34.4191 21.5158 34.8344 19.3256 34.8334ZM19.3256 31.6667C22.8617 31.6667 25.8568 30.4396 28.311 27.9854C30.7651 25.5313 31.9922 22.5361 31.9922 19C31.9922 15.4639 30.7651 12.4688 28.311 10.0146C25.8568 7.56044 22.8617 6.33335 19.3256 6.33335C15.7894 6.33335 12.7943 7.56044 10.3401 10.0146C7.88597 12.4688 6.65889 15.4639 6.65889 19C6.65889 22.5361 7.88597 25.5313 10.3401 27.9854C12.7943 30.4396 15.7894 31.6667 19.3256 31.6667Z" fill="white"/>
</svg>
