<svg width="316" height="316" viewBox="0 0 316 316" fill="none" xmlns="http://www.w3.org/2000/svg">
<path fill-rule="evenodd" clip-rule="evenodd" d="M158.001 276.5C223.446 276.5 276.501 223.445 276.501 158C276.501 92.5552 223.446 39.5002 158.001 39.5002C92.5557 39.5002 39.5007 92.5552 39.5007 158C39.5007 223.445 92.5557 276.5 158.001 276.5ZM158.001 289.667C230.72 289.667 289.667 230.72 289.667 158C289.667 85.2807 230.72 26.3335 158.001 26.3335C85.2812 26.3335 26.334 85.2807 26.334 158C26.334 230.72 85.2812 289.667 158.001 289.667Z" fill="#2B8CA7"/>
<path d="M79 234.564C79 227.764 84.0823 222.016 90.85 221.266C141.64 215.644 174.59 216.151 225.268 221.391C227.799 221.657 230.198 222.654 232.171 224.26C234.145 225.867 235.607 228.013 236.381 230.437C237.155 232.861 237.206 235.458 236.527 237.911C235.849 240.364 234.472 242.566 232.563 244.248C172.753 296.382 138.573 295.664 83.2133 244.301C80.5142 241.799 79 238.238 79 234.564Z" fill="#2B8CA7"/>
<path fill-rule="evenodd" clip-rule="evenodd" d="M224.592 227.935C174.315 222.734 141.839 222.247 91.5689 227.81C89.9142 228.003 88.3887 228.799 87.2845 230.047C86.1803 231.294 85.5751 232.905 85.5847 234.571C85.5847 236.454 86.3681 238.238 87.6913 239.475C115.131 264.927 135.921 276.428 156.244 276.5C176.639 276.573 198.548 265.164 228.239 239.291C229.182 238.452 229.861 237.356 230.194 236.138C230.526 234.92 230.497 233.631 230.111 232.429C229.724 231.227 228.997 230.163 228.017 229.366C227.038 228.569 225.848 228.068 224.592 227.935ZM90.1272 214.722C141.451 209.041 174.881 209.554 225.955 214.841C229.762 215.238 233.37 216.737 236.339 219.154C239.307 221.57 241.507 224.8 242.668 228.448C243.829 232.095 243.901 236.002 242.876 239.69C241.851 243.378 239.773 246.687 236.896 249.212C206.777 275.467 181.695 289.766 156.204 289.667C130.641 289.575 106.665 275.032 78.7446 249.127C76.7456 247.265 75.152 245.01 74.0635 242.505C72.9749 239.999 72.4148 237.296 72.418 234.564C72.4084 229.656 74.21 224.917 77.4777 221.254C80.7454 217.592 85.2495 215.27 90.1272 214.722Z" fill="#2B8CA7"/>
<path d="M210.667 131.667C210.667 145.635 205.119 159.031 195.242 168.908C185.365 178.785 171.969 184.333 158.001 184.333C144.033 184.333 130.637 178.785 120.76 168.908C110.883 159.031 105.334 145.635 105.334 131.667C105.334 117.699 110.883 104.303 120.76 94.4257C130.637 84.5488 144.033 79 158.001 79C171.969 79 185.365 84.5488 195.242 94.4257C205.119 104.303 210.667 117.699 210.667 131.667Z" fill="#2B8CA7"/>
<path fill-rule="evenodd" clip-rule="evenodd" d="M158.001 171.167C168.477 171.167 178.524 167.005 185.931 159.597C193.339 152.19 197.501 142.143 197.501 131.667C197.501 121.191 193.339 111.144 185.931 103.736C178.524 96.3283 168.477 92.1667 158.001 92.1667C147.525 92.1667 137.478 96.3283 130.07 103.736C122.662 111.144 118.501 121.191 118.501 131.667C118.501 142.143 122.662 152.19 130.07 159.597C137.478 167.005 147.525 171.167 158.001 171.167ZM158.001 184.333C171.969 184.333 185.365 178.785 195.242 168.908C205.119 159.031 210.667 145.635 210.667 131.667C210.667 117.699 205.119 104.303 195.242 94.4257C185.365 84.5488 171.969 79 158.001 79C144.033 79 130.637 84.5488 120.76 94.4257C110.883 104.303 105.334 117.699 105.334 131.667C105.334 145.635 110.883 159.031 120.76 168.908C130.637 178.785 144.033 184.333 158.001 184.333Z" fill="#2B8CA7"/>
</svg>
