<svg width="20" height="20" viewBox="0 0 20 20" fill="none" xmlns="http://www.w3.org/2000/svg">
<path d="M10.075 19.4266C4.94476 19.4266 0.786133 15.268 0.786133 10.1377C0.786133 5.0075 4.94476 0.848877 10.075 0.848877C15.2052 0.848877 19.3639 5.0075 19.3639 10.1377C19.3639 15.268 15.2052 19.4266 10.075 19.4266ZM6.8239 11.9955V13.8533H9.14611V15.7111H11.0039V13.8533H11.9328C12.5487 13.8533 13.1393 13.6086 13.5748 13.1731C14.0103 12.7376 14.255 12.147 14.255 11.5311C14.255 10.9152 14.0103 10.3245 13.5748 9.88902C13.1393 9.45352 12.5487 9.20886 11.9328 9.20886H8.21723C8.09405 9.20886 7.97592 9.15993 7.88882 9.07283C7.80172 8.98573 7.75278 8.86759 7.75278 8.74441C7.75278 8.62124 7.80172 8.5031 7.88882 8.416C7.97592 8.3289 8.09405 8.27997 8.21723 8.27997H13.3261V6.4222H11.0039V4.56442H9.14611V6.4222H8.21723C7.60134 6.4222 7.01067 6.66686 6.57517 7.10236C6.13967 7.53786 5.89501 8.12852 5.89501 8.74441C5.89501 9.3603 6.13967 9.95097 6.57517 10.3865C7.01067 10.822 7.60134 11.0666 8.21723 11.0666H11.9328C12.056 11.0666 12.1741 11.1156 12.2612 11.2027C12.3483 11.2898 12.3972 11.4079 12.3972 11.5311C12.3972 11.6543 12.3483 11.7724 12.2612 11.8595C12.1741 11.9466 12.056 11.9955 11.9328 11.9955H6.8239Z" fill="white"/>
</svg>
