<svg width="15" height="16" viewBox="0 0 15 16" fill="none" xmlns="http://www.w3.org/2000/svg">
<path d="M7.49999 15.0834C3.58787 15.0834 0.416656 11.9121 0.416656 8.00002C0.416656 4.0879 3.58787 0.916687 7.49999 0.916687C11.4121 0.916687 14.5833 4.0879 14.5833 8.00002C14.5833 11.9121 11.4121 15.0834 7.49999 15.0834ZM5.02082 9.41669V10.8334H6.79166V12.25H8.20832V10.8334H8.91666C9.38631 10.8334 9.83673 10.6468 10.1688 10.3147C10.5009 9.98259 10.6875 9.53218 10.6875 9.06252C10.6875 8.59287 10.5009 8.14245 10.1688 7.81035C9.83673 7.47826 9.38631 7.29169 8.91666 7.29169H6.08332C5.98939 7.29169 5.89931 7.25437 5.83289 7.18795C5.76647 7.12154 5.72916 7.03145 5.72916 6.93752C5.72916 6.84359 5.76647 6.75351 5.83289 6.68709C5.89931 6.62067 5.98939 6.58335 6.08332 6.58335H9.97916V5.16669H8.20832V3.75002H6.79166V5.16669H6.08332C5.61367 5.16669 5.16325 5.35326 4.83116 5.68535C4.49906 6.01745 4.31249 6.46787 4.31249 6.93752C4.31249 7.40718 4.49906 7.85759 4.83116 8.18969C5.16325 8.52178 5.61367 8.70835 6.08332 8.70835H8.91666C9.01059 8.70835 9.10067 8.74567 9.16709 8.81209C9.23351 8.87851 9.27082 8.96859 9.27082 9.06252C9.27082 9.15645 9.23351 9.24654 9.16709 9.31295C9.10067 9.37937 9.01059 9.41669 8.91666 9.41669H5.02082Z" fill="#E5D11E"/>
</svg>
