<svg width="44" height="44" viewBox="0 0 44 44" fill="none" xmlns="http://www.w3.org/2000/svg">
<path d="M34.8333 5.5C35.8058 5.5 36.7384 5.88631 37.4261 6.57394C38.1137 7.26157 38.5 8.19421 38.5 9.16667V34.8333C38.5 35.8058 38.1137 36.7384 37.4261 37.4261C36.7384 38.1137 35.8058 38.5 34.8333 38.5H9.16667C8.19421 38.5 7.26157 38.1137 6.57394 37.4261C5.88631 36.7384 5.5 35.8058 5.5 34.8333V9.16667C5.5 8.19421 5.88631 7.26157 6.57394 6.57394C7.26157 5.88631 8.19421 5.5 9.16667 5.5H34.8333ZM30.6167 17.1417C31.02 16.7567 31.02 16.115 30.6167 15.73L28.27 13.3833C28.1789 13.2878 28.0694 13.2118 27.9481 13.1598C27.8267 13.1079 27.6961 13.0811 27.5642 13.0811C27.4322 13.0811 27.3016 13.1079 27.1803 13.1598C27.0589 13.2118 26.9494 13.2878 26.8583 13.3833L25.025 15.2167L28.7833 18.975L30.6167 17.1417ZM12.8333 27.39V31.1667H16.61L27.72 20.0567L23.9433 16.28L12.8333 27.39Z" fill="#2B8CA7"/>
</svg>
