<svg width="25" height="25" viewBox="0 0 25 25" fill="none" xmlns="http://www.w3.org/2000/svg">
<path d="M22.125 0.125C22.8543 0.125 23.5538 0.414731 24.0695 0.930456C24.5853 1.44618 24.875 2.14565 24.875 2.875V22.125C24.875 22.8543 24.5853 23.5538 24.0695 24.0695C23.5538 24.5853 22.8543 24.875 22.125 24.875H2.875C2.14565 24.875 1.44618 24.5853 0.930456 24.0695C0.414731 23.5538 0.125 22.8543 0.125 22.125V2.875C0.125 2.14565 0.414731 1.44618 0.930456 0.930456C1.44618 0.414731 2.14565 0.125 2.875 0.125H22.125ZM18.9625 8.85625C19.265 8.5675 19.265 8.08625 18.9625 7.7975L17.2025 6.0375C17.1342 5.96587 17.052 5.90884 16.9611 5.86988C16.8701 5.83092 16.7721 5.81083 16.6731 5.81083C16.5741 5.81083 16.4762 5.83092 16.3852 5.86988C16.2942 5.90884 16.2121 5.96587 16.1437 6.0375L14.7687 7.4125L17.5875 10.2313L18.9625 8.85625ZM5.625 16.5425V19.375H8.4575L16.79 11.0425L13.9575 8.21L5.625 16.5425Z" fill="#34675C"/>
</svg>
