<svg width="38" height="38" viewBox="0 0 38 38" fill="none" xmlns="http://www.w3.org/2000/svg">
<path d="M30.0833 4.75C30.9232 4.75 31.7286 5.08363 32.3225 5.6775C32.9164 6.27136 33.25 7.07681 33.25 7.91667V30.0833C33.25 30.9232 32.9164 31.7286 32.3225 32.3225C31.7286 32.9164 30.9232 33.25 30.0833 33.25H7.91667C7.07681 33.25 6.27136 32.9164 5.6775 32.3225C5.08363 31.7286 4.75 30.9232 4.75 30.0833V7.91667C4.75 7.07681 5.08363 6.27136 5.6775 5.6775C6.27136 5.08363 7.07681 4.75 7.91667 4.75H30.0833ZM26.4417 14.8042C26.79 14.4717 26.79 13.9175 26.4417 13.585L24.415 11.5583C24.3363 11.4758 24.2418 11.4102 24.137 11.3653C24.0322 11.3205 23.9194 11.2973 23.8054 11.2973C23.6914 11.2973 23.5786 11.3205 23.4739 11.3653C23.3691 11.4102 23.2745 11.4758 23.1958 11.5583L21.6125 13.1417L24.8583 16.3875L26.4417 14.8042ZM11.0833 23.655V26.9167H14.345L23.94 17.3217L20.6783 14.06L11.0833 23.655Z" fill="white"/>
</svg>
