<svg width="38" height="38" viewBox="0 0 38 38" fill="none" xmlns="http://www.w3.org/2000/svg">
<path d="M7.43598 5.375C6.88937 5.375 6.36515 5.59214 5.97865 5.97865C5.59214 6.36515 5.375 6.88937 5.375 7.43598V16.8876C5.37512 17.4342 5.59233 17.9583 5.97887 18.3447L20.4057 32.7716C20.7922 33.1579 21.3163 33.375 21.8628 33.375C22.4093 33.375 22.9334 33.1579 23.3199 32.7716L32.7716 23.3199C33.1579 22.9334 33.375 22.4093 33.375 21.8628C33.375 21.3163 33.1579 20.7922 32.7716 20.4057L18.3447 5.97887C17.9583 5.59233 17.4342 5.37512 16.8876 5.375H7.43598ZM15.6799 12.5884C15.6799 13.4083 15.3542 14.1947 14.7744 14.7744C14.1947 15.3542 13.4083 15.6799 12.5884 15.6799C11.7685 15.6799 10.9822 15.3542 10.4024 14.7744C9.82266 14.1947 9.49695 13.4083 9.49695 12.5884C9.49695 11.7685 9.82266 10.9822 10.4024 10.4024C10.9822 9.82266 11.7685 9.49695 12.5884 9.49695C13.4083 9.49695 14.1947 9.82266 14.7744 10.4024C15.3542 10.9822 15.6799 11.7685 15.6799 12.5884Z" fill="#2B8CA7"/>
</svg>
