<svg width="38" height="38" viewBox="0 0 38 38" fill="none" xmlns="http://www.w3.org/2000/svg">
<path d="M17.4164 31.6668C16.9678 31.6668 16.592 31.5148 16.2891 31.2108C15.9851 30.9079 15.8331 30.5321 15.8331 30.0835V20.5835L6.64977 8.86683C6.25394 8.33905 6.19483 7.78489 6.47244 7.20433C6.74899 6.62377 7.23033 6.3335 7.91644 6.3335H30.0831C30.7692 6.3335 31.2511 6.62377 31.5287 7.20433C31.8052 7.78489 31.7456 8.33905 31.3498 8.86683L22.1664 20.5835V30.0835C22.1664 30.5321 22.015 30.9079 21.712 31.2108C21.408 31.5148 21.0317 31.6668 20.5831 31.6668H17.4164Z" fill="#C19B47"/>
</svg>
