<svg width="42" height="42" viewBox="0 0 42 42" fill="none" xmlns="http://www.w3.org/2000/svg">
<path d="M18.4167 41.6667C17.6847 41.6667 17.0716 41.4187 16.5773 40.9227C16.0813 40.4284 15.8333 39.8153 15.8333 39.0833V23.5833L0.85 4.46668C0.204167 3.60557 0.107722 2.7014 0.560667 1.75418C1.01189 0.806955 1.79722 0.333344 2.91667 0.333344H39.0833C40.2028 0.333344 40.989 0.806955 41.4419 1.75418C41.8931 2.7014 41.7958 3.60557 41.15 4.46668L26.1667 23.5833V39.0833C26.1667 39.8153 25.9195 40.4284 25.4253 40.9227C24.9293 41.4187 24.3153 41.6667 23.5833 41.6667H18.4167Z" fill="white"/>
</svg>
