<svg width="36" height="36" viewBox="0 0 36 36" fill="none" xmlns="http://www.w3.org/2000/svg">
<path d="M16.5001 30C16.0751 30 15.7191 29.856 15.4321 29.568C15.1441 29.281 15.0001 28.925 15.0001 28.5V19.5L6.30011 8.4C5.92511 7.9 5.86911 7.375 6.13211 6.825C6.39411 6.275 6.85011 6 7.50011 6H28.5001C29.1501 6 29.6066 6.275 29.8696 6.825C30.1316 7.375 30.0751 7.9 29.7001 8.4L21.0001 19.5V28.5C21.0001 28.925 20.8566 29.281 20.5696 29.568C20.2816 29.856 19.9251 30 19.5001 30H16.5001Z" fill="white"/>
</svg>
