<svg width="50" height="50" viewBox="0 0 50 50" fill="none" xmlns="http://www.w3.org/2000/svg">
<circle cx="25" cy="25" r="25" fill="#D9D9D9"/>
<path d="M23.4167 38.6673C22.9681 38.6673 22.5923 38.5153 22.2893 38.2113C21.9853 37.9084 21.8333 37.5326 21.8333 37.084V27.584L12.65 15.8673C12.2542 15.3395 12.1951 14.7854 12.4727 14.2048C12.7492 13.6243 13.2306 13.334 13.9167 13.334H36.0833C36.7695 13.334 37.2513 13.6243 37.5289 14.2048C37.8055 14.7854 37.7458 15.3395 37.35 15.8673L28.1667 27.584V37.084C28.1667 37.5326 28.0152 37.9084 27.7123 38.2113C27.4083 38.5153 27.032 38.6673 26.5833 38.6673H23.4167Z" fill="#2B8CA7"/>
</svg>
