<svg width="34" height="34" viewBox="0 0 34 34" fill="none" xmlns="http://www.w3.org/2000/svg">
<g clip-path="url(#clip0_2586_11990)">
<path d="M16.9983 7.85187C18.3047 7.85187 19.5576 8.37085 20.4814 9.29464C21.4052 10.2184 21.9242 11.4714 21.9242 12.7778C21.9242 14.0842 21.4052 15.3372 20.4814 16.2609C19.5576 17.1847 18.3047 17.7037 16.9983 17.7037C15.6918 17.7037 14.4389 17.1847 13.5151 16.2609C12.5913 15.3372 12.0723 14.0842 12.0723 12.7778C12.0723 11.4714 12.5913 10.2184 13.5151 9.29464C14.4389 8.37085 15.6918 7.85187 16.9983 7.85187ZM7.14641 11.3704C7.93456 11.3704 8.66641 11.5815 9.29975 11.9615C9.08863 13.9741 9.67974 15.9726 10.8901 17.5348C10.1864 18.8859 8.779 19.8148 7.14641 19.8148C6.02661 19.8148 4.95267 19.37 4.16085 18.5782C3.36903 17.7864 2.92419 16.7124 2.92419 15.5926C2.92419 14.4728 3.36903 13.3989 4.16085 12.607C4.95267 11.8152 6.02661 11.3704 7.14641 11.3704ZM26.8501 11.3704C27.9699 11.3704 29.0439 11.8152 29.8357 12.607C30.6275 13.3989 31.0723 14.4728 31.0723 15.5926C31.0723 16.7124 30.6275 17.7864 29.8357 18.5782C29.0439 19.37 27.9699 19.8148 26.8501 19.8148C25.2175 19.8148 23.8101 18.8859 23.1064 17.5348C24.3335 15.9507 24.9031 13.9547 24.6968 11.9615C25.3301 11.5815 26.062 11.3704 26.8501 11.3704ZM7.85012 25.7963C7.85012 22.883 11.9457 20.5185 16.9983 20.5185C22.0509 20.5185 26.1464 22.883 26.1464 25.7963V28.2593H7.85012V25.7963ZM0.109375 28.2593V26.1482C0.109375 24.1919 2.76937 22.5452 6.37234 22.0667C5.54197 23.0237 5.0353 24.3467 5.0353 25.7963V28.2593H0.109375ZM33.8872 28.2593H28.9612V25.7963C28.9612 24.3467 28.4546 23.0237 27.6242 22.0667C31.2272 22.5452 33.8872 24.1919 33.8872 26.1482V28.2593Z" fill="#D3D3D3"/>
</g>
<defs>
<clipPath id="clip0_2586_11990">
<rect width="33.7778" height="33.7778" fill="white" transform="translate(0.109375 0.111107)"/>
</clipPath>
</defs>
</svg>
