<svg width="39" height="38" viewBox="0 0 39 38" fill="none" xmlns="http://www.w3.org/2000/svg">
<g clip-path="url(#clip0_768_19900)">
<path d="M19.5 9.85205C20.8064 9.85205 22.0593 10.371 22.9831 11.2948C23.9069 12.2186 24.4259 13.4715 24.4259 14.778C24.4259 16.0844 23.9069 17.3373 22.9831 18.2611C22.0593 19.1849 20.8064 19.7039 19.5 19.7039C18.1935 19.7039 16.9406 19.1849 16.0168 18.2611C15.093 17.3373 14.574 16.0844 14.574 14.778C14.574 13.4715 15.093 12.2186 16.0168 11.2948C16.9406 10.371 18.1935 9.85205 19.5 9.85205ZM9.64812 13.3706C10.4363 13.3706 11.1681 13.5817 11.8015 13.9617C11.5903 15.9743 12.1815 17.9728 13.3918 19.535C12.6881 20.8861 11.2807 21.815 9.64812 21.815C8.52832 21.815 7.45438 21.3702 6.66256 20.5784C5.87074 19.7865 5.4259 18.7126 5.4259 17.5928C5.4259 16.473 5.87074 15.399 6.66256 14.6072C7.45438 13.8154 8.52832 13.3706 9.64812 13.3706ZM29.3518 13.3706C30.4716 13.3706 31.5456 13.8154 32.3374 14.6072C33.1292 15.399 33.574 16.473 33.574 17.5928C33.574 18.7126 33.1292 19.7865 32.3374 20.5784C31.5456 21.3702 30.4716 21.815 29.3518 21.815C27.7192 21.815 26.3118 20.8861 25.6081 19.535C26.8352 17.9509 27.4048 15.9548 27.1985 13.9617C27.8318 13.5817 28.5637 13.3706 29.3518 13.3706ZM10.3518 27.7965C10.3518 24.8832 14.4474 22.5187 19.5 22.5187C24.5526 22.5187 28.6481 24.8832 28.6481 27.7965V30.2595H10.3518V27.7965ZM2.61108 30.2595V28.1483C2.61108 26.1921 5.27108 24.5454 8.87405 24.0669C8.04368 25.0239 7.53701 26.3469 7.53701 27.7965V30.2595H2.61108ZM36.3889 30.2595H31.4629V27.7965C31.4629 26.3469 30.9563 25.0239 30.1259 24.0669C33.7289 24.5454 36.3889 26.1921 36.3889 28.1483V30.2595Z" fill="#D3D3D3"/>
</g>
<defs>
<clipPath id="clip0_768_19900">
<rect width="33.7778" height="33.7778" fill="white" transform="translate(2.61108 2.11133)"/>
</clipPath>
</defs>
</svg>
