<svg width="32" height="20" viewBox="0 0 32 20" fill="none" xmlns="http://www.w3.org/2000/svg">
<path d="M16 0.333344C17.2377 0.333344 18.4247 0.825009 19.2998 1.70018C20.175 2.57535 20.6667 3.76233 20.6667 5.00001C20.6667 6.23769 20.175 7.42467 19.2998 8.29984C18.4247 9.17501 17.2377 9.66668 16 9.66668C14.7623 9.66668 13.5753 9.17501 12.7002 8.29984C11.825 7.42467 11.3333 6.23769 11.3333 5.00001C11.3333 3.76233 11.825 2.57535 12.7002 1.70018C13.5753 0.825009 14.7623 0.333344 16 0.333344ZM6.66667 3.66668C7.41333 3.66668 8.10667 3.86668 8.70667 4.22668C8.50667 6.13334 9.06667 8.02668 10.2133 9.50668C9.54667 10.7867 8.21333 11.6667 6.66667 11.6667C5.6058 11.6667 4.58839 11.2453 3.83824 10.4951C3.08809 9.74496 2.66667 8.72754 2.66667 7.66668C2.66667 6.60581 3.08809 5.58839 3.83824 4.83825C4.58839 4.0881 5.6058 3.66668 6.66667 3.66668ZM25.3333 3.66668C26.3942 3.66668 27.4116 4.0881 28.1618 4.83825C28.9119 5.58839 29.3333 6.60581 29.3333 7.66668C29.3333 8.72754 28.9119 9.74496 28.1618 10.4951C27.4116 11.2453 26.3942 11.6667 25.3333 11.6667C23.7867 11.6667 22.4533 10.7867 21.7867 9.50668C22.9492 8.0059 23.4888 6.11494 23.2933 4.22668C23.8933 3.86668 24.5867 3.66668 25.3333 3.66668ZM7.33333 17.3333C7.33333 14.5733 11.2133 12.3333 16 12.3333C20.7867 12.3333 24.6667 14.5733 24.6667 17.3333V19.6667H7.33333V17.3333ZM0 19.6667V17.6667C0 15.8133 2.52 14.2533 5.93333 13.8C5.14667 14.7067 4.66667 15.96 4.66667 17.3333V19.6667H0ZM32 19.6667H27.3333V17.3333C27.3333 15.96 26.8533 14.7067 26.0667 13.8C29.48 14.2533 32 15.8133 32 17.6667V19.6667Z" fill="white"/>
</svg>
