<svg width="38" height="38" viewBox="0 0 38 38" fill="none" xmlns="http://www.w3.org/2000/svg">
<path d="M30.0833 26.9167V30.0833H11.0833V26.9167C11.0833 26.9167 11.0833 20.5833 20.5833 20.5833C30.0833 20.5833 30.0833 26.9167 30.0833 26.9167ZM25.3333 12.6667C25.3333 11.7272 25.0548 10.8088 24.5328 10.0277C24.0109 9.24657 23.269 8.63775 22.4011 8.27823C21.5331 7.91871 20.5781 7.82465 19.6567 8.00793C18.7352 8.19121 17.8889 8.6436 17.2246 9.3079C16.5603 9.9722 16.1079 10.8186 15.9246 11.74C15.7413 12.6614 15.8354 13.6165 16.1949 14.4844C16.5544 15.3524 17.1632 16.0942 17.9444 16.6161C18.7255 17.1381 19.6439 17.4167 20.5833 17.4167C21.8431 17.4167 23.0513 16.9162 23.9421 16.0254C24.8329 15.1346 25.3333 13.9264 25.3333 12.6667ZM30.4 20.6783C31.2655 21.4768 31.9633 22.4397 32.4526 23.5108C32.9419 24.5819 33.213 25.7397 33.25 26.9167V30.0833H38V26.9167C38 26.9167 38 21.4542 30.4 20.6783ZM28.5 7.91666C28.0216 7.91694 27.5462 7.99173 27.0908 8.13832C28.0172 9.46669 28.5138 11.0472 28.5138 12.6667C28.5138 14.2861 28.0172 15.8666 27.0908 17.195C27.5462 17.3416 28.0216 17.4164 28.5 17.4167C29.7598 17.4167 30.968 16.9162 31.8588 16.0254C32.7496 15.1346 33.25 13.9264 33.25 12.6667C33.25 11.4069 32.7496 10.1987 31.8588 9.3079C30.968 8.4171 29.7598 7.91666 28.5 7.91666ZM12.6667 15.8333H7.91667V11.0833H4.75V15.8333H0V19H4.75V23.75H7.91667V19H12.6667V15.8333Z" fill="#D3D3D3"/>
</svg>
