<svg width="23" height="13" viewBox="0 0 23 13" fill="none" xmlns="http://www.w3.org/2000/svg">
<path d="M5.22904 11.0016V12.8202H16.1401V11.0016C16.1401 11.0016 16.1401 7.36462 10.6846 7.36462C5.22904 7.36462 5.22904 11.0016 5.22904 11.0016ZM7.9568 2.81834C7.9568 2.27884 8.11678 1.75146 8.41651 1.30288C8.71624 0.854299 9.14226 0.504674 9.6407 0.298216C10.1391 0.0917581 10.6876 0.0377392 11.2167 0.142991C11.7459 0.248242 12.2319 0.508036 12.6134 0.889521C12.9949 1.27101 13.2547 1.75705 13.3599 2.28618C13.4652 2.81532 13.4112 3.36378 13.2047 3.86221C12.9982 4.36065 12.6486 4.78667 12.2 5.0864C11.7515 5.38613 11.2241 5.54611 10.6846 5.54611C9.96112 5.54611 9.2673 5.25872 8.75574 4.74716C8.24419 4.23561 7.9568 3.54179 7.9568 2.81834ZM5.04718 7.41917C4.55016 7.87772 4.14945 8.43067 3.86844 9.04575C3.58744 9.66084 3.43177 10.3257 3.41053 11.0016V12.8202H0.68276V11.0016C0.68276 11.0016 0.68276 7.86471 5.04718 7.41917ZM6.13829 0.0905772C6.41301 0.0907416 6.68603 0.133688 6.94753 0.217873C6.41557 0.98071 6.13035 1.88834 6.13035 2.81834C6.13035 3.74834 6.41557 4.65598 6.94753 5.41881C6.68603 5.503 6.41301 5.54594 6.13829 5.54611C5.41484 5.54611 4.72103 5.25872 4.20947 4.74716C3.69791 4.23561 3.41053 3.54179 3.41053 2.81834C3.41053 2.09489 3.69791 1.40108 4.20947 0.889521C4.72103 0.377966 5.41484 0.0905772 6.13829 0.0905772ZM15.2308 4.63685H17.9586V1.90909H19.7771V4.63685H22.5049V6.45536H19.7771V9.18313H17.9586V6.45536H15.2308V4.63685Z" fill="white"/>
</svg>
