<svg width="34" height="34" viewBox="0 0 34 34" fill="none" xmlns="http://www.w3.org/2000/svg">
<path opacity="0.5" d="M17 0.333336C13.7036 0.333336 10.4813 1.31082 7.7405 3.14218C4.99968 4.97353 2.86347 7.57651 1.60201 10.6219C0.34055 13.6674 0.0104941 17.0185 0.653581 20.2515C1.29667 23.4845 2.88401 26.4542 5.21489 28.7851C7.54576 31.116 10.5155 32.7033 13.7485 33.3464C16.9815 33.9895 20.3326 33.6595 23.3781 32.398C26.4235 31.1365 29.0265 29.0003 30.8578 26.2595C32.6892 23.5187 33.6667 20.2964 33.6667 17C33.6667 14.8113 33.2356 12.644 32.398 10.6219C31.5604 8.59985 30.3328 6.76253 28.7851 5.21489C27.2375 3.66725 25.4002 2.43959 23.3781 1.60201C21.356 0.764432 19.1887 0.333336 17 0.333336ZM17 30.3333C14.3629 30.3333 11.7851 29.5513 9.5924 28.0863C7.39974 26.6212 5.69078 24.5388 4.68161 22.1024C3.67244 19.6661 3.4084 16.9852 3.92287 14.3988C4.43734 11.8124 5.70721 9.43661 7.57191 7.57191C9.43661 5.70721 11.8124 4.43734 14.3988 3.92287C16.9852 3.4084 19.6661 3.67244 22.1024 4.68161C24.5388 5.69078 26.6212 7.39974 28.0863 9.5924C29.5513 11.7851 30.3333 14.3629 30.3333 17C30.3333 20.5362 28.9286 23.9276 26.4281 26.4281C23.9276 28.9286 20.5362 30.3333 17 30.3333Z" fill="white"/>
</svg>
