<svg width="104" height="104" viewBox="0 0 104 104" fill="none" xmlns="http://www.w3.org/2000/svg">
<path d="M103 52C103 63.9436 98.8082 75.5084 91.1553 84.6781C83.5025 93.8478 72.8741 100.041 61.1232 102.177C49.3722 104.314 37.2441 102.258 26.8533 96.3694C16.4625 90.4803 8.46816 81.1312 4.264 69.952C0.0598518 58.7728 -0.0874077 46.4726 3.8479 35.196C7.78321 23.9193 15.5514 14.3815 25.7983 8.24535C36.0451 2.10921 48.1205 -0.235997 59.9193 1.6186C71.718 3.4732 82.4916 9.40995 90.3618 18.3938" stroke="#2B8CA7" stroke-width="2"/>
<path d="M95.0013 24.5793C98.6022 30.2264 101.056 36.5273 102.221 43.1225C103.387 49.7177 103.243 56.4779 101.796 63.0171C100.349 69.5564 97.6284 75.7467 93.7892 81.2346C89.9501 86.7224 85.0677 91.4003 79.4207 95.0013C73.7736 98.6022 67.4727 101.056 60.8775 102.221C54.2823 103.387 47.5221 103.243 40.9828 101.796C34.4436 100.349 28.2533 97.6284 22.7654 93.7892C17.2776 89.9501 12.5997 85.0677 8.99874 79.4206C5.39781 73.7736 2.9444 67.4727 1.77859 60.8775C0.612781 54.2823 0.7574 47.5221 2.20419 40.9828C3.65099 34.4436 6.37162 28.2533 10.2108 22.7654C14.0499 17.2776 18.9323 12.5997 24.5794 8.99874C30.2264 5.39781 36.5273 2.9444 43.1225 1.77859C49.7177 0.612781 56.4779 0.757401 63.0172 2.20419C69.5564 3.65099 75.7467 6.37162 81.2346 10.2108C86.7224 14.0499 91.4003 18.9323 95.0013 24.5794L95.0013 24.5793Z" stroke="#2A4D7E" stroke-opacity="0.3" stroke-width="2"/>
</svg>
