<svg width="35" height="35" viewBox="0 0 35 35" fill="none" xmlns="http://www.w3.org/2000/svg">
<path d="M17.5003 16.7707C16.5334 16.7707 15.6061 16.3866 14.9223 15.7028C14.2386 15.0191 13.8545 14.0918 13.8545 13.1248C13.8545 12.1579 14.2386 11.2306 14.9223 10.5468C15.6061 9.86312 16.5334 9.479 17.5003 9.479C18.4673 9.479 19.3946 9.86312 20.0783 10.5468C20.762 11.2306 21.1462 12.1579 21.1462 13.1248C21.1462 13.6036 21.0519 14.0777 20.8686 14.52C20.6854 14.9624 20.4169 15.3643 20.0783 15.7028C19.7398 16.0414 19.3379 16.3099 18.8955 16.4931C18.4532 16.6764 17.9791 16.7707 17.5003 16.7707ZM17.5003 2.9165C14.7929 2.9165 12.1964 3.99202 10.2819 5.90646C8.36751 7.82089 7.29199 10.4174 7.29199 13.1248C7.29199 20.7811 17.5003 32.0832 17.5003 32.0832C17.5003 32.0832 27.7087 20.7811 27.7087 13.1248C27.7087 10.4174 26.6331 7.82089 24.7187 5.90646C22.8043 3.99202 20.2077 2.9165 17.5003 2.9165Z" fill="white"/>
</svg>
