<svg width="34" height="34" viewBox="0 0 34 34" fill="none" xmlns="http://www.w3.org/2000/svg">
<path d="M21.7104 22.5854C21.4507 22.2875 21.3208 21.9497 21.3208 21.572C21.3208 21.1944 21.4507 20.879 21.7104 20.626L24.3313 18.0823H14.1667C13.7653 18.0823 13.4286 17.9503 13.1566 17.6863C12.8846 17.4223 12.7491 17.0959 12.75 16.7073C12.75 16.3177 12.886 15.9909 13.158 15.7269C13.43 15.4629 13.7662 15.3314 14.1667 15.3323H24.3313L21.7104 12.7885C21.4271 12.5135 21.2854 12.1867 21.2854 11.8082C21.2854 11.4296 21.4271 11.1032 21.7104 10.8292C21.9701 10.5542 22.295 10.4167 22.6851 10.4167C23.0751 10.4167 23.3996 10.5427 23.6583 10.7948L28.7583 15.7448C28.9 15.8823 29.0006 16.0312 29.0601 16.1917C29.1196 16.3521 29.1489 16.5239 29.1479 16.7073C29.1479 16.8906 29.1186 17.0625 29.0601 17.2229C29.0015 17.3833 28.9009 17.5323 28.7583 17.6698L23.6583 22.6198C23.3514 22.9177 23.0147 23.0497 22.6483 23.0158C22.2818 22.9819 21.9692 22.8384 21.7104 22.5854ZM7.08334 29.0823C6.30417 29.0823 5.63692 28.8128 5.08159 28.2738C4.52625 27.7348 4.24906 27.0876 4.25 26.3323V7.08228C4.25 6.32603 4.52767 5.6784 5.083 5.1394C5.63834 4.6004 6.30511 4.33136 7.08334 4.33228H15.5833C15.9847 4.33228 16.3214 4.46428 16.5934 4.72828C16.8654 4.99228 17.0009 5.31861 17 5.70728C17 6.09686 16.864 6.42365 16.592 6.68765C16.32 6.95165 15.9838 7.08319 15.5833 7.08228H7.08334V26.3323H15.5833C15.9847 26.3323 16.3214 26.4643 16.5934 26.7283C16.8654 26.9923 17.0009 27.3186 17 27.7073C17 28.0969 16.864 28.4237 16.592 28.6877C16.32 28.9517 15.9838 29.0832 15.5833 29.0823H7.08334Z" fill="#C19B47"/>
</svg>
