<svg width="34" height="34" viewBox="0 0 34 34" fill="none" xmlns="http://www.w3.org/2000/svg">
<path d="M21.7104 22.5852C21.4507 22.2872 21.3208 21.9494 21.3208 21.5718C21.3208 21.1941 21.4507 20.8788 21.7104 20.6258L24.3313 18.082H14.1667C13.7653 18.082 13.4286 17.95 13.1566 17.686C12.8846 17.422 12.7491 17.0957 12.75 16.707C12.75 16.3174 12.886 15.9907 13.158 15.7267C13.43 15.4627 13.7662 15.3311 14.1667 15.332H24.3313L21.7104 12.7883C21.4271 12.5133 21.2854 12.1865 21.2854 11.8079C21.2854 11.4293 21.4271 11.103 21.7104 10.8289C21.9701 10.5539 22.295 10.4164 22.6851 10.4164C23.0751 10.4164 23.3996 10.5424 23.6583 10.7945L28.7583 15.7445C28.9 15.882 29.0006 16.031 29.0601 16.1914C29.1196 16.3518 29.1489 16.5237 29.1479 16.707C29.1479 16.8904 29.1186 17.0622 29.0601 17.2227C29.0015 17.3831 28.9009 17.532 28.7583 17.6695L23.6583 22.6195C23.3514 22.9174 23.0147 23.0494 22.6483 23.0155C22.2818 22.9816 21.9692 22.8382 21.7104 22.5852ZM7.08334 29.082C6.30417 29.082 5.63692 28.8125 5.08159 28.2735C4.52625 27.7345 4.24906 27.0874 4.25 26.332V7.08203C4.25 6.32578 4.52767 5.67816 5.083 5.13916C5.63834 4.60016 6.30511 4.33112 7.08334 4.33203H15.5833C15.9847 4.33203 16.3214 4.46403 16.5934 4.72803C16.8654 4.99203 17.0009 5.31837 17 5.70703C17 6.09662 16.864 6.42341 16.592 6.68741C16.32 6.95141 15.9838 7.08295 15.5833 7.08203H7.08334V26.332H15.5833C15.9847 26.332 16.3214 26.464 16.5934 26.728C16.8654 26.992 17.0009 27.3184 17 27.707C17 28.0966 16.864 28.4234 16.592 28.6874C16.32 28.9514 15.9838 29.0829 15.5833 29.082H7.08334Z" fill="#2B8CA7"/>
</svg>
