<svg width="50" height="50" viewBox="0 0 50 50" fill="none" xmlns="http://www.w3.org/2000/svg">
<circle cx="25" cy="25" r="25" fill="#D9D9D9"/>
<g clip-path="url(#clip0_2167_29870)">
<path d="M25 15.8145C26.1689 15.8145 27.29 16.2788 28.1165 17.1054C28.9431 17.9319 29.4074 19.0529 29.4074 20.2219C29.4074 21.3908 28.9431 22.5118 28.1165 23.3384C27.29 24.1649 26.1689 24.6293 25 24.6293C23.8311 24.6293 22.7101 24.1649 21.8835 23.3384C21.057 22.5118 20.5926 21.3908 20.5926 20.2219C20.5926 19.0529 21.057 17.9319 21.8835 17.1054C22.7101 16.2788 23.8311 15.8145 25 15.8145ZM16.1852 18.9626C16.8904 18.9626 17.5452 19.1515 18.1119 19.4915C17.923 21.2922 18.4519 23.0804 19.5348 24.4782C18.9052 25.687 17.646 26.5182 16.1852 26.5182C15.1833 26.5182 14.2224 26.1201 13.5139 25.4117C12.8054 24.7032 12.4074 23.7423 12.4074 22.7404C12.4074 21.7385 12.8054 20.7776 13.5139 20.0691C14.2224 19.3606 15.1833 18.9626 16.1852 18.9626ZM33.8148 18.9626C34.8168 18.9626 35.7777 19.3606 36.4861 20.0691C37.1946 20.7776 37.5926 21.7385 37.5926 22.7404C37.5926 23.7423 37.1946 24.7032 36.4861 25.4117C35.7777 26.1201 34.8168 26.5182 33.8148 26.5182C32.3541 26.5182 31.0948 25.687 30.4652 24.4782C31.5631 23.0608 32.0727 21.2748 31.8882 19.4915C32.4548 19.1515 33.1097 18.9626 33.8148 18.9626ZM16.8148 31.87C16.8148 29.2633 20.4793 27.1478 25 27.1478C29.5208 27.1478 33.1852 29.2633 33.1852 31.87V34.0737H16.8148V31.87ZM9.88892 34.0737V32.1848C9.88892 30.4345 12.2689 28.9611 15.4926 28.533C14.7497 29.3893 14.2963 30.573 14.2963 31.87V34.0737H9.88892ZM40.1111 34.0737H35.7037V31.87C35.7037 30.573 35.2504 29.3893 34.5074 28.533C37.7311 28.9611 40.1111 30.4345 40.1111 32.1848V34.0737Z" fill="#C19B47"/>
</g>
<defs>
<clipPath id="clip0_2167_29870">
<rect width="30.2222" height="30.2222" fill="white" transform="translate(9.88892 8.88867)"/>
</clipPath>
</defs>
</svg>
