<svg width="32" height="32" viewBox="0 0 32 32" fill="none" xmlns="http://www.w3.org/2000/svg">
<g clip-path="url(#clip0_2057_12925)">
<path d="M15.9998 7.81445C17.1687 7.81445 18.2897 8.2788 19.1163 9.10535C19.9428 9.9319 20.4072 11.0529 20.4072 12.2219C20.4072 13.3908 19.9428 14.5118 19.1163 15.3384C18.2897 16.1649 17.1687 16.6293 15.9998 16.6293C14.8309 16.6293 13.7098 16.1649 12.8833 15.3384C12.0567 14.5118 11.5924 13.3908 11.5924 12.2219C11.5924 11.0529 12.0567 9.9319 12.8833 9.10535C13.7098 8.2788 14.8309 7.81445 15.9998 7.81445ZM7.18497 10.9626C7.89015 10.9626 8.54497 11.1515 9.11164 11.4915C8.92275 13.2922 9.45164 15.0804 10.5346 16.4782C9.90497 17.687 8.64571 18.5182 7.18497 18.5182C6.18304 18.5182 5.22215 18.1201 4.51368 17.4117C3.80521 16.7032 3.40719 15.7423 3.40719 14.7404C3.40719 13.7384 3.80521 12.7776 4.51368 12.0691C5.22215 11.3606 6.18304 10.9626 7.18497 10.9626ZM24.8146 10.9626C25.8165 10.9626 26.7774 11.3606 27.4859 12.0691C28.1944 12.7776 28.5924 13.7384 28.5924 14.7404C28.5924 15.7423 28.1944 16.7032 27.4859 17.4117C26.7774 18.1201 25.8165 18.5182 24.8146 18.5182C23.3539 18.5182 22.0946 17.687 21.465 16.4782C22.5629 15.0608 23.0725 13.2748 22.8879 11.4915C23.4546 11.1515 24.1094 10.9626 24.8146 10.9626ZM7.8146 23.87C7.8146 21.2633 11.479 19.1478 15.9998 19.1478C20.5205 19.1478 24.185 21.2633 24.185 23.87V26.0737H7.8146V23.87ZM0.888672 26.0737V24.1848C0.888672 22.4345 3.26867 20.9611 6.49238 20.533C5.74941 21.3893 5.29608 22.573 5.29608 23.87V26.0737H0.888672ZM31.1109 26.0737H26.7035V23.87C26.7035 22.573 26.2502 21.3893 25.5072 20.533C28.7309 20.9611 31.1109 22.4345 31.1109 24.1848V26.0737Z" fill="#2B8CA7"/>
</g>
<defs>
<clipPath id="clip0_2057_12925">
<rect width="30.2222" height="30.2222" fill="white" transform="translate(0.888672 0.888672)"/>
</clipPath>
</defs>
</svg>
