<svg width="34" height="34" viewBox="0 0 34 34" fill="none" xmlns="http://www.w3.org/2000/svg">
<g clip-path="url(#clip0_2196_29983)">
<path d="M16.9998 8.81445C18.1687 8.81445 19.2897 9.2788 20.1163 10.1054C20.9428 10.9319 21.4072 12.0529 21.4072 13.2219C21.4072 14.3908 20.9428 15.5118 20.1163 16.3384C19.2897 17.1649 18.1687 17.6293 16.9998 17.6293C15.8309 17.6293 14.7098 17.1649 13.8833 16.3384C13.0567 15.5118 12.5924 14.3908 12.5924 13.2219C12.5924 12.0529 13.0567 10.9319 13.8833 10.1054C14.7098 9.2788 15.8309 8.81445 16.9998 8.81445ZM8.18497 11.9626C8.89015 11.9626 9.54497 12.1515 10.1116 12.4915C9.92275 14.2922 10.4516 16.0804 11.5346 17.4782C10.905 18.687 9.64571 19.5182 8.18497 19.5182C7.18304 19.5182 6.22215 19.1201 5.51368 18.4117C4.80521 17.7032 4.40719 16.7423 4.40719 15.7404C4.40719 14.7385 4.80521 13.7776 5.51368 13.0691C6.22215 12.3606 7.18304 11.9626 8.18497 11.9626ZM25.8146 11.9626C26.8165 11.9626 27.7774 12.3606 28.4859 13.0691C29.1944 13.7776 29.5924 14.7385 29.5924 15.7404C29.5924 16.7423 29.1944 17.7032 28.4859 18.4117C27.7774 19.1201 26.8165 19.5182 25.8146 19.5182C24.3539 19.5182 23.0946 18.687 22.465 17.4782C23.5629 16.0608 24.0725 14.2748 23.8879 12.4915C24.4546 12.1515 25.1094 11.9626 25.8146 11.9626ZM8.8146 24.87C8.8146 22.2633 12.479 20.1478 16.9998 20.1478C21.5205 20.1478 25.185 22.2633 25.185 24.87V27.0737H8.8146V24.87ZM1.88867 27.0737V25.1848C1.88867 23.4345 4.26867 21.9611 7.49238 21.533C6.74941 22.3893 6.29608 23.573 6.29608 24.87V27.0737H1.88867ZM32.1109 27.0737H27.7035V24.87C27.7035 23.573 27.2502 22.3893 26.5072 21.533C29.7309 21.9611 32.1109 23.4345 32.1109 25.1848V27.0737Z" fill="#C19B47"/>
</g>
<defs>
<clipPath id="clip0_2196_29983">
<rect width="30.2222" height="30.2222" fill="white" transform="translate(1.88867 1.88867)"/>
</clipPath>
</defs>
</svg>
