<svg width="25" height="25" viewBox="0 0 25 25" fill="none" xmlns="http://www.w3.org/2000/svg">
<path d="M12.4999 22.9168C11.0589 22.9168 9.70478 22.6432 8.43742 22.096C7.17006 21.5488 6.06763 20.8068 5.13013 19.87C4.19263 18.9325 3.45061 17.83 2.90409 16.5627C2.35756 15.2953 2.08395 13.9411 2.08325 12.5002C2.08325 11.0592 2.35686 9.70502 2.90409 8.43766C3.45131 7.1703 4.19332 6.06787 5.13013 5.13037C6.06763 4.19287 7.17006 3.45086 8.43742 2.90433C9.70478 2.3578 11.0589 2.08419 12.4999 2.0835C13.9409 2.0835 15.2951 2.35711 16.5624 2.90433C17.8298 3.45155 18.9322 4.19357 19.8697 5.13037C20.8072 6.06787 21.5496 7.1703 22.0968 8.43766C22.644 9.70502 22.9173 11.0592 22.9166 12.5002C22.9166 13.9411 22.643 15.2953 22.0958 16.5627C21.5485 17.83 20.8065 18.9325 19.8697 19.87C18.9322 20.8075 17.8298 21.5498 16.5624 22.097C15.2951 22.6443 13.9409 22.9175 12.4999 22.9168ZM11.9791 17.7085H14.0624V7.29183H9.89575V9.37516H11.9791V17.7085Z" fill="#C19B47"/>
</svg>
