<svg width="38" height="38" viewBox="0 0 38 38" fill="none" xmlns="http://www.w3.org/2000/svg">
<path d="M26.7188 30.875C25.8967 30.875 25.0932 30.6312 24.4097 30.1745C23.7262 29.7179 23.1935 29.0687 22.8789 28.3093C22.5643 27.5498 22.482 26.7141 22.6424 25.9079C22.8027 25.1017 23.1986 24.3611 23.7798 23.7798C24.3611 23.1986 25.1017 22.8027 25.9079 22.6424C26.7141 22.482 27.5498 22.5643 28.3093 22.8789C29.0687 23.1935 29.7179 23.7262 30.1745 24.4097C30.6312 25.0932 30.875 25.8967 30.875 26.7188C30.8737 27.8207 30.4355 28.8771 29.6563 29.6563C28.8771 30.4355 27.8207 30.8737 26.7188 30.875ZM26.7188 24.9375C26.3665 24.9375 26.0221 25.042 25.7291 25.2377C25.4362 25.4334 25.2079 25.7116 25.0731 26.0371C24.9383 26.3626 24.903 26.7207 24.9717 27.0663C25.0405 27.4118 25.2101 27.7292 25.4592 27.9783C25.7083 28.2274 26.0257 28.397 26.3712 28.4658C26.7168 28.5345 27.0749 28.4992 27.4004 28.3644C27.7259 28.2296 28.0041 28.0013 28.1998 27.7084C28.3955 27.4154 28.5 27.071 28.5 26.7188C28.4994 26.2465 28.3115 25.7938 27.9776 25.4599C27.6437 25.126 27.191 24.9381 26.7188 24.9375Z" fill="white"/>
<path d="M26.7188 36.8125C24.7224 36.8125 22.7709 36.2205 21.111 35.1114C19.4511 34.0023 18.1573 32.4259 17.3933 30.5815C16.6294 28.7371 16.4295 26.7076 16.819 24.7496C17.2084 22.7916 18.1698 20.993 19.5814 19.5814C20.993 18.1698 22.7916 17.2084 24.7496 16.819C26.7076 16.4295 28.7371 16.6294 30.5815 17.3933C32.4259 18.1573 34.0023 19.4511 35.1114 21.111C36.2205 22.7709 36.8125 24.7224 36.8125 26.7188C36.8094 29.3948 35.7449 31.9604 33.8526 33.8526C31.9604 35.7449 29.3948 36.8094 26.7188 36.8125ZM26.7188 19C25.1921 19 23.6998 19.4527 22.4304 20.3008C21.1611 21.149 20.1718 22.3545 19.5876 23.7649C19.0033 25.1753 18.8505 26.7273 19.1483 28.2246C19.4461 29.7219 20.1813 31.0972 21.2608 32.1767C22.3403 33.2562 23.7156 33.9914 25.2129 34.2892C26.7102 34.587 28.2622 34.4342 29.6726 33.8499C31.083 33.2657 32.2885 32.2764 33.1367 31.0071C33.9848 29.7377 34.4375 28.2454 34.4375 26.7188C34.4353 24.6723 33.6214 22.7103 32.1743 21.2632C30.7272 19.8161 28.7652 19.0022 26.7188 19Z" fill="white"/>
<path d="M29.6875 5.9375H26.125V4.75C26.1231 4.12069 25.8723 3.51769 25.4273 3.0727C24.9823 2.62771 24.3793 2.37688 23.75 2.375H14.25C13.6207 2.37688 13.0177 2.62771 12.5727 3.0727C12.1277 3.51769 11.8769 4.12069 11.875 4.75V5.9375H8.3125C7.68319 5.93938 7.08019 6.19021 6.6352 6.6352C6.19021 7.08019 5.93938 7.68319 5.9375 8.3125V33.25C5.93938 33.8793 6.19021 34.4823 6.6352 34.9273C7.08019 35.3723 7.68319 35.6231 8.3125 35.625H14.25V33.25H8.3125V8.3125H11.875V11.875H26.125V8.3125H29.6875V14.25H32.0625V8.3125C32.0606 7.68319 31.8098 7.08019 31.3648 6.6352C30.9198 6.19021 30.3168 5.93938 29.6875 5.9375ZM23.75 9.5H14.25V4.75H23.75V9.5Z" fill="white"/>
</svg>
