<svg width="35" height="35" viewBox="0 0 35 35" fill="none" xmlns="http://www.w3.org/2000/svg">
<path d="M17.4999 17.5002C15.8958 17.5002 14.5225 16.929 13.3801 15.7866C12.2378 14.6443 11.6666 13.271 11.6666 11.6668C11.6666 10.0627 12.2378 8.6894 13.3801 7.54704C14.5225 6.40468 15.8958 5.8335 17.4999 5.8335C19.1041 5.8335 20.4773 6.40468 21.6197 7.54704C22.7621 8.6894 23.3333 10.0627 23.3333 11.6668C23.3333 13.271 22.7621 14.6443 21.6197 15.7866C20.4773 16.929 19.1041 17.5002 17.4999 17.5002ZM5.83325 29.1668V25.0835C5.83325 24.2571 6.04617 23.4973 6.472 22.8041C6.89784 22.1109 7.4627 21.5825 8.16658 21.2189C9.67353 20.4654 11.2048 19.9001 12.7603 19.5229C14.3159 19.1456 15.8958 18.9575 17.4999 18.9585C19.1041 18.9585 20.6839 19.1471 22.2395 19.5243C23.7951 19.9016 25.3263 20.4664 26.8333 21.2189C27.5381 21.5835 28.1035 22.1124 28.5293 22.8056C28.9551 23.4988 29.1676 24.2581 29.1666 25.0835V29.1668H5.83325Z" fill="#D3D3D3"/>
</svg>
