<svg width="28" height="28" viewBox="0 0 28 28" fill="none" xmlns="http://www.w3.org/2000/svg">
<path d="M6.5 21.5H21.5C21.8 21.5 22.025 21.3625 22.175 21.0875C22.325 20.8125 22.3 20.55 22.1 20.3L17.975 14.7875C17.825 14.5875 17.625 14.4875 17.375 14.4875C17.125 14.4875 16.925 14.5875 16.775 14.7875L12.875 20L10.1 16.2875C9.95 16.0875 9.75 15.9875 9.5 15.9875C9.25 15.9875 9.05 16.0875 8.9 16.2875L5.9 20.3C5.7 20.55 5.675 20.8125 5.825 21.0875C5.975 21.3625 6.2 21.5 6.5 21.5ZM3.5 27.5C2.675 27.5 1.9685 27.206 1.3805 26.618C0.792502 26.03 0.499003 25.324 0.500003 24.5V3.5C0.500003 2.675 0.794003 1.9685 1.382 1.3805C1.97 0.792502 2.676 0.499003 3.5 0.500003H24.5C25.325 0.500003 26.0315 0.794003 26.6195 1.382C27.2075 1.97 27.501 2.676 27.5 3.5V24.5C27.5 25.325 27.206 26.0315 26.618 26.6195C26.03 27.2075 25.324 27.501 24.5 27.5H3.5ZM3.5 24.5H24.5V3.5H3.5V24.5Z" fill="#D3D3D3"/>
</svg>
