<svg width="30" height="30" viewBox="0 0 30 30" fill="none" xmlns="http://www.w3.org/2000/svg">
<path d="M7.08334 22.9167H22.9167C23.2333 22.9167 23.4708 22.7715 23.6292 22.4813C23.7875 22.191 23.7611 21.9139 23.55 21.65L19.1958 15.8313C19.0375 15.6201 18.8264 15.5146 18.5625 15.5146C18.2986 15.5146 18.0875 15.6201 17.9292 15.8313L13.8125 21.3333L10.8833 17.4146C10.725 17.2035 10.5139 17.0979 10.25 17.0979C9.98611 17.0979 9.775 17.2035 9.61667 17.4146L6.45 21.65C6.23889 21.9139 6.2125 22.191 6.37084 22.4813C6.52917 22.7715 6.76667 22.9167 7.08334 22.9167ZM3.91667 29.25C3.04584 29.25 2.30009 28.9397 1.67942 28.319C1.05875 27.6983 0.748947 26.9531 0.750003 26.0833V3.91667C0.750003 3.04584 1.06034 2.30009 1.681 1.67942C2.30167 1.05875 3.04689 0.748947 3.91667 0.750003H26.0833C26.9542 0.750003 27.6999 1.06034 28.3206 1.681C28.9413 2.30167 29.2511 3.04689 29.25 3.91667V26.0833C29.25 26.9542 28.9397 27.6999 28.319 28.3206C27.6983 28.9413 26.9531 29.2511 26.0833 29.25H3.91667ZM3.91667 26.0833H26.0833V3.91667H3.91667V26.0833Z" fill="#34675C"/>
</svg>
