<svg width="36" height="36" viewBox="0 0 36 36" fill="none" xmlns="http://www.w3.org/2000/svg">
<path d="M10.5 25.5H25.5C25.8 25.5 26.025 25.3625 26.175 25.0875C26.325 24.8125 26.3 24.55 26.1 24.3L21.975 18.7875C21.825 18.5875 21.625 18.4875 21.375 18.4875C21.125 18.4875 20.925 18.5875 20.775 18.7875L16.875 24L14.1 20.2875C13.95 20.0875 13.75 19.9875 13.5 19.9875C13.25 19.9875 13.05 20.0875 12.9 20.2875L9.9 24.3C9.7 24.55 9.675 24.8125 9.825 25.0875C9.975 25.3625 10.2 25.5 10.5 25.5ZM7.5 31.5C6.675 31.5 5.9685 31.206 5.3805 30.618C4.7925 30.03 4.499 29.324 4.5 28.5V7.5C4.5 6.675 4.794 5.9685 5.382 5.3805C5.97 4.7925 6.676 4.499 7.5 4.5H28.5C29.325 4.5 30.0315 4.794 30.6195 5.382C31.2075 5.97 31.501 6.676 31.5 7.5V28.5C31.5 29.325 31.206 30.0315 30.618 30.6195C30.03 31.2075 29.324 31.501 28.5 31.5H7.5ZM7.5 28.5H28.5V7.5H7.5V28.5Z" fill="#2B8CA7"/>
</svg>
