<svg width="32" height="31" viewBox="0 0 32 31" fill="none" xmlns="http://www.w3.org/2000/svg">
<path d="M12.2934 2.80297C9.91052 2.79036 7.59071 5.08495 8.64975 7.93429H4.65312C3.98437 7.93429 3.34301 8.19995 2.87013 8.67282C2.39725 9.1457 2.13159 9.78706 2.13159 10.4558V12.9773C2.13159 13.3117 2.26442 13.6324 2.50086 13.8688C2.7373 14.1053 3.05798 14.2381 3.39236 14.2381H14.7392V10.4558H17.2608V14.2381H28.6077C28.942 14.2381 29.2627 14.1053 29.4992 13.8688C29.7356 13.6324 29.8684 13.3117 29.8684 12.9773V10.4558C29.8684 9.78706 29.6028 9.1457 29.1299 8.67282C28.657 8.19995 28.0157 7.93429 27.3469 7.93429H23.3503C24.8254 3.81158 19.278 0.899213 16.7186 4.45457L16 5.41275L15.2814 4.42936C14.4871 3.30728 13.3902 2.81558 12.2934 2.80297ZM12.2177 5.41275C13.3398 5.41275 13.9071 6.77438 13.1129 7.56866C12.3186 8.36295 10.957 7.7956 10.957 6.67352C10.957 6.33914 11.0898 6.01846 11.3262 5.78202C11.5627 5.54558 11.8833 5.41275 12.2177 5.41275ZM19.7823 5.41275C20.9044 5.41275 21.4717 6.77438 20.6775 7.56866C19.8832 8.36295 18.5215 7.7956 18.5215 6.67352C18.5215 6.33914 18.6544 6.01846 18.8908 5.78202C19.1273 5.54558 19.4479 5.41275 19.7823 5.41275ZM3.39236 15.4989V25.585C3.39236 26.2538 3.65802 26.8951 4.1309 27.368C4.60378 27.8409 5.24514 28.1065 5.91389 28.1065H26.0861C26.7549 28.1065 27.3962 27.8409 27.8691 27.368C28.342 26.8951 28.6077 26.2538 28.6077 25.585V15.4989H17.2608V25.585H14.7392V15.4989H3.39236Z" fill="#D3D3D3"/>
</svg>
