<svg width="32" height="31" viewBox="0 0 32 31" fill="none" xmlns="http://www.w3.org/2000/svg">
<path d="M12.2934 2.80279C9.91052 2.79018 7.59071 5.08477 8.64975 7.9341H4.65312C3.98437 7.9341 3.34301 8.19976 2.87013 8.67264C2.39725 9.14552 2.13159 9.78688 2.13159 10.4556V12.9772C2.13159 13.3115 2.26442 13.6322 2.50086 13.8687C2.7373 14.1051 3.05798 14.2379 3.39236 14.2379H14.7392V10.4556H17.2608V14.2379H28.6077C28.942 14.2379 29.2627 14.1051 29.4992 13.8687C29.7356 13.6322 29.8684 13.3115 29.8684 12.9772V10.4556C29.8684 9.78688 29.6028 9.14552 29.1299 8.67264C28.657 8.19976 28.0157 7.9341 27.3469 7.9341H23.3503C24.8254 3.8114 19.278 0.89903 16.7186 4.45439L16 5.41257L15.2814 4.42917C14.4871 3.30709 13.3902 2.81539 12.2934 2.80279ZM12.2177 5.41257C13.3398 5.41257 13.9071 6.7742 13.1129 7.56848C12.3186 8.36276 10.957 7.79542 10.957 6.67334C10.957 6.33896 11.0898 6.01828 11.3262 5.78184C11.5627 5.5454 11.8833 5.41257 12.2177 5.41257ZM19.7823 5.41257C20.9044 5.41257 21.4717 6.7742 20.6775 7.56848C19.8832 8.36276 18.5215 7.79542 18.5215 6.67334C18.5215 6.33896 18.6544 6.01828 18.8908 5.78184C19.1273 5.5454 19.4479 5.41257 19.7823 5.41257ZM3.39236 15.4987V25.5848C3.39236 26.2536 3.65802 26.8949 4.1309 27.3678C4.60378 27.8407 5.24514 28.1064 5.91389 28.1064H26.0861C26.7549 28.1064 27.3962 27.8407 27.8691 27.3678C28.342 26.8949 28.6077 26.2536 28.6077 25.5848V15.4987H17.2608V25.5848H14.7392V15.4987H3.39236Z" fill="#2B8CA7"/>
</svg>
