<svg width="30" height="30" viewBox="0 0 30 30" fill="none" xmlns="http://www.w3.org/2000/svg">
<path d="M23.9062 6.5625H10.7812C9.66237 6.5625 8.58931 7.00697 7.79814 7.79814C7.00697 8.58931 6.5625 9.66237 6.5625 10.7812V23.9062C6.5625 25.0251 7.00697 26.0982 7.79814 26.8894C8.58931 27.6805 9.66237 28.125 10.7812 28.125H23.9062C25.0251 28.125 26.0982 27.6805 26.8894 26.8894C27.6805 26.0982 28.125 25.0251 28.125 23.9062V10.7812C28.125 9.66237 27.6805 8.58931 26.8894 7.79814C26.0982 7.00697 25.0251 6.5625 23.9062 6.5625ZM22.0049 18.2812H18.2812V22.0049C18.2812 22.5094 17.8934 22.9424 17.3889 22.9676C17.2621 22.9737 17.1354 22.954 17.0165 22.9097C16.8976 22.8654 16.7889 22.7974 16.697 22.7099C16.6051 22.6223 16.532 22.517 16.482 22.4004C16.432 22.2837 16.4063 22.1582 16.4062 22.0312V18.2812H12.6826C12.1781 18.2812 11.7451 17.8934 11.7199 17.3889C11.7138 17.2621 11.7335 17.1354 11.7778 17.0165C11.8221 16.8976 11.8901 16.7889 11.9776 16.697C12.0652 16.6051 12.1705 16.532 12.2871 16.482C12.4038 16.432 12.5293 16.4063 12.6562 16.4062H16.4062V12.6826C16.4062 12.1781 16.7941 11.7451 17.2986 11.7199C17.4254 11.7138 17.5521 11.7335 17.671 11.7778C17.7899 11.8221 17.8986 11.8901 17.9905 11.9776C18.0824 12.0652 18.1555 12.1705 18.2055 12.2871C18.2555 12.4038 18.2812 12.5293 18.2812 12.6562V16.4062H22.0312C22.1583 16.4061 22.284 16.4318 22.4008 16.4817C22.5175 16.5316 22.623 16.6047 22.7106 16.6966C22.7983 16.7885 22.8664 16.8972 22.9108 17.0162C22.9551 17.1352 22.9749 17.262 22.9688 17.3889C22.9441 17.8934 22.5094 18.2812 22.0049 18.2812Z" fill="#2B8CA7"/>
<path d="M23.1961 4.6875C22.9044 3.86557 22.3656 3.15403 21.6535 2.65048C20.9414 2.14693 20.0909 1.87605 19.2188 1.875H6.09375C4.97487 1.875 3.90181 2.31947 3.11064 3.11064C2.31947 3.90181 1.875 4.97487 1.875 6.09375V19.2188C1.87605 20.0909 2.14693 20.9414 2.65048 21.6535C3.15403 22.3656 3.86557 22.9044 4.6875 23.1961V9.375C4.6875 8.1318 5.18136 6.93951 6.06044 6.06044C6.93951 5.18136 8.1318 4.6875 9.375 4.6875H23.1961Z" fill="#2B8CA7"/>
</svg>
