<svg width="38" height="38" viewBox="0 0 38 38" fill="none" xmlns="http://www.w3.org/2000/svg">
<path d="M17.418 26.9167H20.5846V20.5833H26.918V17.4167H20.5846V11.0833H17.418V17.4167H11.0846V20.5833H17.418V26.9167ZM19.0013 34.8333C16.811 34.8333 14.7527 34.4174 12.8263 33.5857C10.8999 32.7539 9.22422 31.626 7.79922 30.2021C6.37422 28.7771 5.24636 27.1014 4.41564 25.175C3.58491 23.2486 3.16902 21.1903 3.16797 19C3.16797 16.8097 3.58386 14.7514 4.41564 12.825C5.24741 10.8986 6.37527 9.22292 7.79922 7.79791C9.22422 6.37291 10.8999 5.24505 12.8263 4.41433C14.7527 3.58361 16.811 3.16772 19.0013 3.16666C21.1916 3.16666 23.2499 3.58255 25.1763 4.41433C27.1027 5.24611 28.7784 6.37397 30.2034 7.79791C31.6284 9.22292 32.7568 10.8986 33.5886 12.825C34.4203 14.7514 34.8357 16.8097 34.8346 19C34.8346 21.1903 34.4187 23.2486 33.587 25.175C32.7552 27.1014 31.6273 28.7771 30.2034 30.2021C28.7784 31.6271 27.1027 32.7555 25.1763 33.5872C23.2499 34.419 21.1916 34.8344 19.0013 34.8333ZM19.0013 31.6667C22.5374 31.6667 25.5326 30.4396 27.9867 27.9854C30.4409 25.5312 31.668 22.5361 31.668 19C31.668 15.4639 30.4409 12.4687 27.9867 10.0146C25.5326 7.56041 22.5374 6.33333 19.0013 6.33333C15.4652 6.33333 12.4701 7.56041 10.0159 10.0146C7.56172 12.4687 6.33464 15.4639 6.33464 19C6.33464 22.5361 7.56172 25.5312 10.0159 27.9854C12.4701 30.4396 15.4652 31.6667 19.0013 31.6667Z" fill="#D3D3D3"/>
</svg>
