<svg width="34" height="33" viewBox="0 0 34 33" fill="none" xmlns="http://www.w3.org/2000/svg">
<path d="M16.016 23.8816H19.0581V15.0237H16.016V23.8816ZM17.5371 12.071C17.968 12.071 18.3295 11.9293 18.6216 11.6458C18.9136 11.3624 19.0591 11.012 19.0581 10.5947C19.0581 10.1764 18.9121 9.82555 18.6201 9.5421C18.328 9.25865 17.967 9.11741 17.5371 9.1184C17.1061 9.1184 16.7446 9.26012 16.4526 9.54357C16.1605 9.82703 16.015 10.1774 16.016 10.5947C16.016 11.013 16.162 11.3639 16.4541 11.6473C16.7461 11.9308 17.1071 12.072 17.5371 12.071ZM17.5371 31.2631C14.0133 30.4019 11.104 28.4394 8.80927 25.3756C6.51451 22.3117 5.36764 18.9103 5.36865 15.1713V6.16576L17.5371 1.73682L29.7055 6.16576V15.1713C29.7055 18.9113 28.5581 22.3132 26.2634 25.3771C23.9686 28.4409 21.0598 30.4029 17.5371 31.2631ZM17.5371 28.1629C20.1736 27.3509 22.3537 25.7269 24.0776 23.291C25.8015 20.8551 26.6634 18.1485 26.6634 15.1713V8.1957L17.5371 4.87399L8.41076 8.1957V15.1713C8.41076 18.1485 9.27269 20.8551 10.9965 23.291C12.7204 25.7269 14.9006 27.3509 17.5371 28.1629Z" fill="#2B8CA7"/>
</svg>
