<svg width="29" height="37" viewBox="0 0 29 37" fill="none" xmlns="http://www.w3.org/2000/svg">
<path d="M12.7084 27.4583H16.2917V16.7083H12.7084V27.4583ZM14.5 13.125C15.0077 13.125 15.4335 12.953 15.7775 12.609C16.1215 12.265 16.2929 11.8398 16.2917 11.3333C16.2917 10.8257 16.1197 10.3999 15.7757 10.0559C15.4317 9.71189 15.0065 9.54048 14.5 9.54168C13.9924 9.54168 13.5666 9.71368 13.2226 10.0577C12.8786 10.4017 12.7072 10.8269 12.7084 11.3333C12.7084 11.841 12.8804 12.2668 13.2244 12.6108C13.5684 12.9548 13.9936 13.1262 14.5 13.125ZM14.5 36.4167C10.3493 35.3715 6.92247 32.9898 4.21944 29.2715C1.51641 25.5532 0.165493 21.4252 0.166688 16.8875V5.95834L14.5 0.583344L28.8334 5.95834V16.8875C28.8334 21.4264 27.4818 25.555 24.7788 29.2733C22.0758 32.9916 18.6495 35.3727 14.5 36.4167ZM14.5 32.6542C17.6056 31.6688 20.1736 29.6979 22.2042 26.7417C24.2347 23.7854 25.25 20.5007 25.25 16.8875V8.42189L14.5 4.39064L3.75002 8.42189V16.8875C3.75002 20.5007 4.7653 23.7854 6.79585 26.7417C8.82641 29.6979 11.3945 31.6688 14.5 32.6542Z" fill="#34675C"/>
</svg>
