<svg width="18" height="18" viewBox="0 0 18 18" fill="none" xmlns="http://www.w3.org/2000/svg">
<path d="M9 15C9.35 15 9.646 14.879 9.888 14.637C10.13 14.395 10.2507 14.0993 10.25 13.75C10.25 13.4 10.129 13.104 9.887 12.862C9.645 12.62 9.34934 12.4993 9 12.5C8.65 12.5 8.354 12.621 8.112 12.863C7.87 13.105 7.74934 13.4007 7.75 13.75C7.75 14.1 7.871 14.396 8.113 14.638C8.355 14.88 8.65067 15.0007 9 15ZM8.1 11.15H9.95C9.95 10.55 10.0167 10.1083 10.15 9.825C10.2833 9.54167 10.5667 9.18334 11 8.75C11.5833 8.16667 11.9957 7.679 12.237 7.287C12.4783 6.895 12.5993 6.44934 12.6 5.95C12.6 5.06667 12.3 4.35434 11.7 3.813C11.1 3.27167 10.2917 3.00067 9.275 3C8.35833 3 7.57934 3.225 6.938 3.675C6.29667 4.125 5.85067 4.75 5.6 5.55L7.25 6.2C7.36667 5.75 7.6 5.38767 7.95 5.113C8.3 4.83834 8.70834 4.70067 9.175 4.7C9.625 4.7 10 4.821 10.3 5.063C10.6 5.305 10.75 5.62567 10.75 6.025C10.75 6.30833 10.6583 6.60834 10.475 6.925C10.2917 7.24167 9.98334 7.59167 9.55 7.975C9 8.45834 8.62067 8.921 8.412 9.363C8.20333 9.805 8.09934 10.4007 8.1 11.15ZM2 18C1.45 18 0.979002 17.804 0.587002 17.412C0.195002 17.02 -0.000664969 16.5493 1.69779e-06 16V2C1.69779e-06 1.45 0.196002 0.979002 0.588002 0.587002C0.980002 0.195002 1.45067 -0.000664969 2 1.69779e-06H16C16.55 1.69779e-06 17.021 0.196002 17.413 0.588002C17.805 0.980002 18.0007 1.45067 18 2V16C18 16.55 17.804 17.021 17.412 17.413C17.02 17.805 16.5493 18.0007 16 18H2ZM2 16H16V2H2V16Z" fill="#34675C"/>
</svg>
