<svg width="36" height="36" viewBox="0 0 36 36" fill="none" xmlns="http://www.w3.org/2000/svg">
<path d="M24.0177 29.4277L29.2302 24.2527L27.6552 22.6777L24.0177 26.2402L22.5552 24.7777L20.9802 26.3902L24.0177 29.4277ZM7.10522 12.5527H25.1052V9.55274H7.10522V12.5527ZM25.1052 33.5527C23.0302 33.5527 21.2612 32.8212 19.7982 31.3582C18.3352 29.8952 17.6042 28.1267 17.6052 26.0527C17.6052 23.9777 18.3367 22.2087 19.7997 20.7457C21.2627 19.2827 23.0312 18.5517 25.1052 18.5527C27.1802 18.5527 28.9492 19.2842 30.4122 20.7472C31.8752 22.2102 32.6062 23.9787 32.6052 26.0527C32.6052 28.1277 31.8737 29.8967 30.4107 31.3597C28.9477 32.8227 27.1792 33.5537 25.1052 33.5527ZM2.60522 32.0527V6.55274C2.60522 5.72774 2.89922 5.02124 3.48722 4.43324C4.07522 3.84524 4.78122 3.55174 5.60522 3.55274H26.6052C27.4302 3.55274 28.1367 3.84674 28.7247 4.43474C29.3127 5.02274 29.6062 5.72874 29.6052 6.55274V16.5652C29.1302 16.3402 28.6427 16.1527 28.1427 16.0027C27.6427 15.8527 27.1302 15.7402 26.6052 15.6652V6.55274H5.60522V27.6277H14.7177C14.8427 28.4027 15.0367 29.1402 15.2997 29.8402C15.5627 30.5402 15.9062 31.2027 16.3302 31.8277L16.1052 32.0527L13.8552 29.8027L11.6052 32.0527L9.35522 29.8027L7.10522 32.0527L4.85522 29.8027L2.60522 32.0527ZM7.10522 24.5527H14.7177C14.7927 24.0277 14.9052 23.5152 15.0552 23.0152C15.2052 22.5152 15.3927 22.0277 15.6177 21.5527H7.10522V24.5527ZM7.10522 18.5527H17.7552C18.7052 17.6277 19.8117 16.8962 21.0747 16.3582C22.3377 15.8202 23.6812 15.5517 25.1052 15.5527H7.10522V18.5527Z" fill="#2B8CA7"/>
</svg>
