<svg width="33" height="33" viewBox="0 0 33 33" fill="none" xmlns="http://www.w3.org/2000/svg">
<path d="M23.3521 28.0625L28.8542 22.6L27.1917 20.9375L23.3521 24.6979L21.8083 23.1542L20.1458 24.8563L23.3521 28.0625ZM5.5 10.25H24.5V7.08334H5.5V10.25ZM24.5 32.4167C22.3097 32.4167 20.4424 31.6445 18.8982 30.1003C17.3539 28.556 16.5823 26.6892 16.5833 24.5C16.5833 22.3097 17.3555 20.4424 18.8997 18.8982C20.444 17.3539 22.3108 16.5823 24.5 16.5833C26.6903 16.5833 28.5576 17.3555 30.1018 18.8998C31.6461 20.444 32.4177 22.3108 32.4167 24.5C32.4167 26.6903 31.6445 28.5576 30.1003 30.1018C28.556 31.6461 26.6892 32.4177 24.5 32.4167ZM0.75 30.8333V3.91667C0.75 3.04584 1.06033 2.30009 1.681 1.67942C2.30167 1.05875 3.04689 0.748947 3.91667 0.750003H26.0833C26.9542 0.750003 27.6999 1.06034 28.3206 1.681C28.9412 2.30167 29.2511 3.04689 29.25 3.91667V14.4854C28.7486 14.2479 28.234 14.05 27.7062 13.8917C27.1785 13.7333 26.6375 13.6146 26.0833 13.5354V3.91667H3.91667V26.1625H13.5354C13.6674 26.9806 13.8721 27.759 14.1497 28.4979C14.4274 29.2368 14.7899 29.9361 15.2375 30.5958L15 30.8333L12.625 28.4583L10.25 30.8333L7.875 28.4583L5.5 30.8333L3.125 28.4583L0.75 30.8333ZM5.5 22.9167H13.5354C13.6146 22.3625 13.7333 21.8215 13.8917 21.2938C14.05 20.766 14.2479 20.2514 14.4854 19.75H5.5V22.9167ZM5.5 16.5833H16.7417C17.7444 15.6069 18.9124 14.8348 20.2456 14.2669C21.5787 13.699 22.9969 13.4156 24.5 13.4167H5.5V16.5833Z" fill="#34675C"/>
</svg>
