<svg width="34" height="34" viewBox="0 0 34 34" fill="none" xmlns="http://www.w3.org/2000/svg">
<path d="M22.6834 27.7928L27.6063 22.9053L26.1188 21.4178L22.6834 24.7824L21.3021 23.4011L19.8146 24.924L22.6834 27.7928ZM6.71045 11.8553H23.7104V9.02195H6.71045V11.8553ZM23.7104 31.6886C21.7507 31.6886 20.08 30.9978 18.6983 29.616C17.3166 28.2343 16.6262 26.5641 16.6271 24.6053C16.6271 22.6456 17.318 20.9748 18.6997 19.5931C20.0814 18.2114 21.7517 17.521 23.7104 17.522C25.6702 17.522 27.3409 18.2128 28.7226 19.5945C30.1043 20.9763 30.7947 22.6465 30.7938 24.6053C30.7938 26.565 30.1029 28.2357 28.7212 29.6175C27.3395 30.9992 25.6692 31.6896 23.7104 31.6886ZM2.46045 30.272V6.18862C2.46045 5.40945 2.73812 4.7422 3.29345 4.18687C3.84878 3.63154 4.51556 3.35434 5.29378 3.35529H25.1271C25.9063 3.35529 26.5735 3.63295 27.1289 4.18829C27.6842 4.74362 27.9614 5.4104 27.9604 6.18862V15.6449C27.5118 15.4324 27.0514 15.2553 26.5792 15.1136C26.107 14.972 25.6229 14.8657 25.1271 14.7949V6.18862H5.29378V26.0928H13.9C14.0181 26.8247 14.2013 27.5213 14.4497 28.1824C14.6981 28.8435 15.0225 29.4692 15.4229 30.0595L15.2104 30.272L13.0854 28.147L10.9604 30.272L8.83545 28.147L6.71045 30.272L4.58545 28.147L2.46045 30.272ZM6.71045 23.1886H13.9C13.9709 22.6928 14.0771 22.2088 14.2188 21.7365C14.3604 21.2643 14.5375 20.8039 14.75 20.3553H6.71045V23.1886ZM6.71045 17.522H16.7688C17.666 16.6483 18.711 15.9575 19.9039 15.4494C21.0967 14.9413 22.3656 14.6877 23.7104 14.6886H6.71045V17.522Z" fill="#D3D3D3"/>
</svg>
