<svg width="36" height="36" viewBox="0 0 36 36" fill="none" xmlns="http://www.w3.org/2000/svg">
<path d="M31.8 34.6L20.6 23.4C19.6 24.2 18.45 24.8333 17.15 25.3C15.85 25.7667 14.4667 26 13 26C9.36667 26 6.292 24.742 3.776 22.226C1.25867 19.7087 0 16.6333 0 13C0 9.36667 1.25867 6.29133 3.776 3.774C6.292 1.258 9.36667 0 13 0C16.6333 0 19.7087 1.258 22.226 3.774C24.742 6.29133 26 9.36667 26 13C26 14.4667 25.7667 15.85 25.3 17.15C24.8333 18.45 24.2 19.6 23.4 20.6L34.65 31.85C35.0167 32.2167 35.2 32.6667 35.2 33.2C35.2 33.7333 35 34.2 34.6 34.6C34.2333 34.9667 33.7667 35.15 33.2 35.15C32.6333 35.15 32.1667 34.9667 31.8 34.6ZM13 22C15.5 22 17.6253 21.1253 19.376 19.376C21.1253 17.6253 22 15.5 22 13C22 10.5 21.1253 8.37467 19.376 6.624C17.6253 4.87467 15.5 4 13 4C10.5 4 8.37467 4.87467 6.624 6.624C4.87467 8.37467 4 10.5 4 13C4 15.5 4.87467 17.6253 6.624 19.376C8.37467 21.1253 10.5 22 13 22Z" fill="white"/>
</svg>
