<svg width="38" height="38" viewBox="0 0 38 38" fill="none" xmlns="http://www.w3.org/2000/svg">
<path d="M29.925 32.1418L21.0583 23.2752C20.2667 23.9085 19.3562 24.4099 18.3271 24.7793C17.2979 25.1488 16.2028 25.3335 15.0417 25.3335C12.1653 25.3335 9.73117 24.3376 7.73933 22.3457C5.74644 20.3528 4.75 17.9182 4.75 15.0418C4.75 12.1654 5.74644 9.73079 7.73933 7.7379C9.73117 5.74607 12.1653 4.75015 15.0417 4.75015C17.9181 4.75015 20.3527 5.74607 22.3456 7.7379C24.3374 9.73079 25.3333 12.1654 25.3333 15.0418C25.3333 16.2029 25.1486 17.2981 24.7792 18.3272C24.4097 19.3564 23.9083 20.2668 23.275 21.0585L32.1812 29.9647C32.4715 30.255 32.6167 30.6113 32.6167 31.0335C32.6167 31.4557 32.4583 31.8251 32.1417 32.1418C31.8514 32.4321 31.4819 32.5772 31.0333 32.5772C30.5847 32.5772 30.2153 32.4321 29.925 32.1418ZM15.0417 22.1668C17.0208 22.1668 18.7034 21.4744 20.0893 20.0895C21.4742 18.7035 22.1667 17.021 22.1667 15.0418C22.1667 13.0627 21.4742 11.3801 20.0893 9.99415C18.7034 8.60926 17.0208 7.91682 15.0417 7.91682C13.0625 7.91682 11.3799 8.60926 9.994 9.99415C8.60911 11.3801 7.91667 13.0627 7.91667 15.0418C7.91667 17.021 8.60911 18.7035 9.994 20.0895C11.3799 21.4744 13.0625 22.1668 15.0417 22.1668Z" fill="#D3D3D3"/>
</svg>
