<svg width="36" height="36" viewBox="0 0 36 36" fill="none" xmlns="http://www.w3.org/2000/svg">
<path d="M24.7503 10.125H29.3583C29.637 10.1253 29.9057 10.229 30.1123 10.416C30.3189 10.6031 30.4487 10.8602 30.4765 11.1375L31.1628 18H28.8993L28.3368 12.375H24.7503V15.75C24.7503 16.0484 24.6318 16.3345 24.4208 16.5455C24.2098 16.7565 23.9237 16.875 23.6253 16.875C23.3269 16.875 23.0408 16.7565 22.8298 16.5455C22.6188 16.3345 22.5003 16.0484 22.5003 15.75V12.375H13.5003V15.75C13.5003 16.0484 13.3818 16.3345 13.1708 16.5455C12.9598 16.7565 12.6737 16.875 12.3753 16.875C12.0769 16.875 11.7908 16.7565 11.5798 16.5455C11.3688 16.3345 11.2503 16.0484 11.2503 15.75V12.375H7.66155L5.86155 30.375H18.0003V32.625H4.6173C4.46017 32.6248 4.30481 32.5918 4.16124 32.5279C4.01767 32.4641 3.88906 32.3708 3.78371 32.2543C3.67836 32.1377 3.59861 32.0003 3.54958 31.851C3.50055 31.7017 3.48333 31.5438 3.49905 31.3875L5.52405 11.1375C5.55192 10.8602 5.68173 10.6031 5.88832 10.416C6.09492 10.229 6.3636 10.1253 6.6423 10.125H11.2503V9.33975C11.2503 5.43825 14.2563 2.25 18.0003 2.25C21.7443 2.25 24.7503 5.43825 24.7503 9.33975V10.1272V10.125ZM22.5003 10.125V9.33975C22.5003 6.65325 20.4708 4.5 18.0003 4.5C15.5298 4.5 13.5003 6.65325 13.5003 9.33975V10.1272H22.5003V10.125ZM29.581 27.135L27.0003 24.5565V32.625C27.0003 32.9234 26.8818 33.2095 26.6708 33.4205C26.4598 33.6315 26.1737 33.75 25.8753 33.75C25.5769 33.75 25.2908 33.6315 25.0798 33.4205C24.8688 33.2095 24.7503 32.9234 24.7503 32.625V24.5565L22.1718 27.135C22.068 27.2424 21.9439 27.3282 21.8066 27.3871C21.6694 27.4461 21.5217 27.4771 21.3724 27.4784C21.223 27.4797 21.0749 27.4512 20.9366 27.3947C20.7983 27.3381 20.6727 27.2546 20.5671 27.1489C20.4615 27.0433 20.3779 26.9177 20.3214 26.7794C20.2648 26.6412 20.2363 26.493 20.2376 26.3437C20.2389 26.1943 20.27 26.0467 20.3289 25.9094C20.3879 25.7722 20.4736 25.648 20.581 25.5442L25.081 21.0442C25.292 20.8333 25.5781 20.7149 25.8764 20.7149C26.1747 20.7149 26.4608 20.8333 26.6718 21.0442L31.1718 25.5442C31.2792 25.648 31.3649 25.7722 31.4239 25.9094C31.4829 26.0467 31.5139 26.1943 31.5152 26.3437C31.5165 26.493 31.488 26.6412 31.4315 26.7794C31.3749 26.9177 31.2914 27.0433 31.1857 27.1489C31.0801 27.2546 30.9545 27.3381 30.8162 27.3947C30.678 27.4512 30.5298 27.4797 30.3805 27.4784C30.2311 27.4771 30.0835 27.4461 29.9462 27.3871C29.809 27.3282 29.6848 27.2424 29.581 27.135Z" fill="#2B8CA7"/>
</svg>
