<svg width="41" height="45" viewBox="0 0 41 45" fill="none" xmlns="http://www.w3.org/2000/svg">
<path d="M31.0625 11.3438H37.5905C37.9853 11.3441 38.366 11.4911 38.6586 11.7561C38.9513 12.0211 39.1352 12.3853 39.1747 12.7781L40.1469 22.5H36.9403L36.1434 14.5312H31.0625V19.3125C31.0625 19.7352 30.8946 20.1406 30.5957 20.4395C30.2968 20.7383 29.8914 20.9062 29.4688 20.9062C29.0461 20.9062 28.6407 20.7383 28.3418 20.4395C28.0429 20.1406 27.875 19.7352 27.875 19.3125V14.5312H15.125V19.3125C15.125 19.7352 14.9571 20.1406 14.6582 20.4395C14.3593 20.7383 13.9539 20.9062 13.5313 20.9062C13.1086 20.9062 12.7032 20.7383 12.4043 20.4395C12.1054 20.1406 11.9375 19.7352 11.9375 19.3125V14.5312H6.85344L4.30344 40.0312H21.5V43.2188H2.54075C2.31815 43.2185 2.09806 43.1717 1.89467 43.0812C1.69128 42.9908 1.50909 42.8587 1.35984 42.6935C1.2106 42.5284 1.09761 42.3338 1.02815 42.1223C0.958691 41.9108 0.934306 41.6871 0.956567 41.4656L3.82532 12.7781C3.8648 12.3853 4.0487 12.0211 4.34137 11.7561C4.63405 11.4911 5.01468 11.3441 5.4095 11.3438H11.9375V10.2313C11.9375 4.70419 16.196 0.1875 21.5 0.1875C26.804 0.1875 31.0625 4.70419 31.0625 10.2313V11.3469V11.3438ZM27.875 11.3438V10.2313C27.875 6.42544 24.9999 3.375 21.5 3.375C18.0001 3.375 15.125 6.42544 15.125 10.2313V11.3469H27.875V11.3438ZM37.9061 35.4412L34.25 31.7884V43.2188C34.25 43.6414 34.0821 44.0468 33.7832 44.3457C33.4843 44.6446 33.0789 44.8125 32.6562 44.8125C32.2336 44.8125 31.8282 44.6446 31.5293 44.3457C31.2304 44.0468 31.0625 43.6414 31.0625 43.2188V31.7884L27.4096 35.4412C27.2626 35.5935 27.0867 35.7149 26.8923 35.7984C26.6979 35.8819 26.4887 35.9259 26.2771 35.9277C26.0655 35.9296 25.8556 35.8893 25.6598 35.8091C25.4639 35.729 25.286 35.6106 25.1363 35.461C24.9867 35.3114 24.8683 35.1334 24.7882 34.9375C24.7081 34.7417 24.6677 34.5318 24.6696 34.3202C24.6714 34.1086 24.7154 33.8995 24.7989 33.705C24.8824 33.5106 25.0038 33.3347 25.1561 33.1877L31.5311 26.8127C31.8299 26.5139 32.2352 26.3461 32.6578 26.3461C33.0804 26.3461 33.4858 26.5139 33.7846 26.8127L40.1596 33.1877C40.3118 33.3347 40.4333 33.5106 40.5168 33.705C40.6003 33.8995 40.6443 34.1086 40.6461 34.3202C40.648 34.5318 40.6076 34.7417 40.5275 34.9375C40.4474 35.1334 40.329 35.3114 40.1794 35.461C40.0297 35.6106 39.8518 35.729 39.6559 35.8091C39.4601 35.8893 39.2502 35.9296 39.0386 35.9277C38.827 35.9259 38.6178 35.8819 38.4234 35.7984C38.2289 35.7149 38.0531 35.5935 37.9061 35.4412Z" fill="#34675C"/>
</svg>
