<svg width="36" height="36" viewBox="0 0 36 36" fill="none" xmlns="http://www.w3.org/2000/svg">
<path d="M24.7498 10.125H29.3578C29.6365 10.1253 29.9052 10.229 30.1118 10.416C30.3184 10.6031 30.4482 10.8602 30.4761 11.1375L31.1623 18H28.8988L28.3363 12.375H24.7498V15.75C24.7498 16.0484 24.6313 16.3345 24.4203 16.5455C24.2093 16.7565 23.9232 16.875 23.6248 16.875C23.3264 16.875 23.0403 16.7565 22.8293 16.5455C22.6183 16.3345 22.4998 16.0484 22.4998 15.75V12.375H13.4998V15.75C13.4998 16.0484 13.3813 16.3345 13.1703 16.5455C12.9593 16.7565 12.6732 16.875 12.3748 16.875C12.0764 16.875 11.7903 16.7565 11.5793 16.5455C11.3683 16.3345 11.2498 16.0484 11.2498 15.75V12.375H7.66106L5.86106 30.375H17.9998V32.625H4.61681C4.45968 32.6248 4.30432 32.5918 4.16075 32.5279C4.01718 32.4641 3.88857 32.3708 3.78323 32.2543C3.67788 32.1377 3.59812 32.0003 3.54909 31.851C3.50006 31.7017 3.48285 31.5438 3.49856 31.3875L5.52356 11.1375C5.55143 10.8602 5.68124 10.6031 5.88784 10.416C6.09443 10.229 6.36311 10.1253 6.64181 10.125H11.2498V9.33975C11.2498 5.43825 14.2558 2.25 17.9998 2.25C21.7438 2.25 24.7498 5.43825 24.7498 9.33975V10.1272V10.125ZM22.4998 10.125V9.33975C22.4998 6.65325 20.4703 4.5 17.9998 4.5C15.5293 4.5 13.4998 6.65325 13.4998 9.33975V10.1272H22.4998V10.125ZM29.5806 27.135L26.9998 24.5565V32.625C26.9998 32.9234 26.8813 33.2095 26.6703 33.4205C26.4593 33.6315 26.1732 33.75 25.8748 33.75C25.5764 33.75 25.2903 33.6315 25.0793 33.4205C24.8683 33.2095 24.7498 32.9234 24.7498 32.625V24.5565L22.1713 27.135C22.0675 27.2424 21.9434 27.3282 21.8061 27.3871C21.6689 27.4461 21.5213 27.4771 21.3719 27.4784C21.2225 27.4797 21.0744 27.4512 20.9361 27.3947C20.7979 27.3381 20.6722 27.2546 20.5666 27.1489C20.461 27.0433 20.3774 26.9177 20.3209 26.7794C20.2643 26.6412 20.2359 26.493 20.2372 26.3437C20.2384 26.1943 20.2695 26.0467 20.3284 25.9094C20.3874 25.7722 20.4731 25.648 20.5806 25.5442L25.0806 21.0442C25.2915 20.8333 25.5776 20.7149 25.8759 20.7149C26.1742 20.7149 26.4603 20.8333 26.6713 21.0442L31.1713 25.5442C31.2788 25.648 31.3645 25.7722 31.4234 25.9094C31.4824 26.0467 31.5134 26.1943 31.5147 26.3437C31.516 26.493 31.4875 26.6412 31.431 26.7794C31.3744 26.9177 31.2909 27.0433 31.1852 27.1489C31.0796 27.2546 30.954 27.3381 30.8158 27.3947C30.6775 27.4512 30.5294 27.4797 30.38 27.4784C30.2306 27.4771 30.083 27.4461 29.9457 27.3871C29.8085 27.3282 29.6843 27.2424 29.5806 27.135Z" fill="#D3D3D3"/>
</svg>
