<svg width="36" height="36" viewBox="0 0 36 36" fill="none" xmlns="http://www.w3.org/2000/svg">
<path d="M5.1 30.6001L31.275 19.3801C31.5456 19.2648 31.7763 19.0726 31.9385 18.8272C32.1007 18.5818 32.1871 18.2942 32.1871 18.0001C32.1871 17.706 32.1007 17.4184 31.9385 17.173C31.7763 16.9276 31.5456 16.7354 31.275 16.6201L5.1 5.4001C4.87335 5.30124 4.62566 5.26036 4.37926 5.28115C4.13287 5.30194 3.89553 5.38375 3.68865 5.51919C3.48177 5.65463 3.31186 5.83944 3.19426 6.05695C3.07665 6.27446 3.01505 6.51783 3.015 6.7651L3 13.6801C3 14.4301 3.555 15.0751 4.305 15.1651L25.5 18.0001L4.305 20.8201C3.555 20.9251 3 21.5701 3 22.3201L3.015 29.2351C3.015 30.3001 4.11 31.0351 5.1 30.6001Z" fill="#2B8CA7"/>
</svg>
