<svg width="22" height="23" viewBox="0 0 22 23" fill="none" xmlns="http://www.w3.org/2000/svg">
<path d="M2.21898 12.2594C2.3946 12.063 2.49146 11.8105 2.49146 11.5491C2.49146 11.2878 2.3946 11.0353 2.21898 10.8389L0.81679 9.28937C0.662277 9.12007 0.566332 8.90704 0.542715 8.68085C0.519098 8.45466 0.569027 8.22694 0.685335 8.03035L2.87626 4.30711C2.99139 4.11075 3.16668 3.9551 3.37716 3.86235C3.58763 3.76961 3.82254 3.74449 4.0484 3.79059L6.10786 4.19951C6.36992 4.25269 6.64273 4.20982 6.87481 4.07898C7.10689 3.94815 7.2822 3.73839 7.36764 3.48929L8.03587 1.52006C8.10936 1.30633 8.24938 1.12069 8.43612 0.989386C8.62287 0.858079 8.8469 0.787746 9.07656 0.788329H13.4584C13.6973 0.776081 13.9337 0.840977 14.1315 0.973107C14.3293 1.10524 14.4776 1.29734 14.5539 1.52006L15.1673 3.48929C15.2528 3.73839 15.4281 3.94815 15.6602 4.07898C15.8922 4.20982 16.165 4.25269 16.4271 4.19951L18.5413 3.79059C18.7554 3.76087 18.9737 3.79406 19.1687 3.88598C19.3636 3.97789 19.5265 4.12443 19.6368 4.30711L21.8277 8.03035C21.9469 8.22475 22.0006 8.45119 21.9809 8.67732C21.9612 8.90344 21.8693 9.11767 21.7182 9.28937L20.3269 10.8389C20.1513 11.0353 20.0545 11.2878 20.0545 11.5491C20.0545 11.8105 20.1513 12.063 20.3269 12.2594L21.7182 13.8089C21.8693 13.9806 21.9612 14.1948 21.9809 14.421C22.0006 14.6471 21.9469 14.8735 21.8277 15.0679L19.6368 18.7912C19.5217 18.9875 19.3464 19.1432 19.1359 19.2359C18.9254 19.3287 18.6905 19.3538 18.4647 19.3077L16.4052 18.8988C16.1431 18.8456 15.8703 18.8885 15.6382 19.0193C15.4062 19.1501 15.2309 19.3599 15.1454 19.609L14.4772 21.5782C14.401 21.8009 14.2526 21.993 14.0548 22.1252C13.857 22.2573 13.6206 22.3222 13.3817 22.3099H8.99988C8.77022 22.3105 8.54619 22.2402 8.35944 22.1089C8.17269 21.9776 8.03268 21.7919 7.95919 21.5782L7.29096 19.609C7.20552 19.3599 7.03021 19.1501 6.79813 19.0193C6.56604 18.8885 6.29323 18.8456 6.03118 18.8988L3.97172 19.3077C3.74586 19.3538 3.51095 19.3287 3.30047 19.2359C3.09 19.1432 2.9147 18.9875 2.79957 18.7912L0.60865 15.0679C0.492342 14.8713 0.442417 14.6436 0.466032 14.4174C0.489649 14.1912 0.585596 13.9782 0.740107 13.8089L2.21898 12.2594ZM3.85121 13.7013L2.97485 14.6698L4.37704 17.0587L5.66968 16.8004C6.45865 16.642 7.27938 16.7736 7.97607 17.1704C8.67275 17.5671 9.1969 18.2013 9.44902 18.9526L9.86529 20.1578H12.6697L13.064 18.9311C13.3162 18.1798 13.8403 17.5456 14.537 17.1489C15.2337 16.7521 16.0544 16.6205 16.8434 16.7789L18.136 17.0372L19.5601 14.659L18.6837 13.6905C18.1448 13.0987 17.8469 12.3325 17.8469 11.5384C17.8469 10.7443 18.1448 9.97808 18.6837 9.38622L19.5601 8.41774L18.1579 6.05036L16.8653 6.30862C16.0763 6.46705 15.2556 6.3354 14.5589 5.93867C13.8622 5.54193 13.3381 4.90774 13.0859 4.15646L12.6697 2.94049H9.86529L9.44902 4.16722C9.1969 4.9185 8.67275 5.5527 7.97607 5.94943C7.27938 6.34616 6.45865 6.47781 5.66968 6.31939L4.37704 6.06113L2.97485 8.45003L3.85121 9.4185C4.38408 10.009 4.67832 10.7708 4.67832 11.5599C4.67832 12.349 4.38408 13.1108 3.85121 13.7013ZM11.2675 7.24481C12.1341 7.24481 12.9813 7.49726 13.7019 7.97022C14.4225 8.44319 14.9841 9.11543 15.3158 9.90195C15.6474 10.6885 15.7342 11.5539 15.5651 12.3889C15.3961 13.2238 14.9787 13.9908 14.3659 14.5928C13.7531 15.1947 12.9723 15.6047 12.1223 15.7708C11.2723 15.9368 10.3913 15.8516 9.59062 15.5258C8.78995 15.2 8.1056 14.6483 7.62411 13.9405C7.14263 13.2327 6.88564 12.4005 6.88564 11.5491C6.88564 10.4076 7.3473 9.31274 8.16905 8.50552C8.99081 7.6983 10.1053 7.24481 11.2675 7.24481ZM11.2675 13.7013C11.7008 13.7013 12.1244 13.5751 12.4847 13.3386C12.845 13.1021 13.1258 12.766 13.2916 12.3727C13.4575 11.9795 13.5008 11.5468 13.4163 11.1293C13.3318 10.7118 13.1231 10.3283 12.8167 10.0273C12.5103 9.72635 12.1199 9.52137 11.6949 9.43833C11.2699 9.35529 10.8294 9.39791 10.4291 9.5608C10.0287 9.72369 9.68654 9.99954 9.4458 10.3535C9.20506 10.7074 9.07656 11.1235 9.07656 11.5491C9.07656 12.1199 9.30739 12.6673 9.71827 13.0709C10.1291 13.4746 10.6864 13.7013 11.2675 13.7013Z" fill="white"/>
</svg>
