<svg width="30" height="30" viewBox="0 0 30 30" fill="none" xmlns="http://www.w3.org/2000/svg">
<path d="M2.64053 15.9756C2.88168 15.706 3.01467 15.3594 3.01467 15.0004C3.01467 14.6415 2.88168 14.2949 2.64053 14.0252L0.71517 11.8975C0.50301 11.6651 0.371264 11.3725 0.338837 11.062C0.306408 10.7514 0.374964 10.4387 0.534668 10.1688L3.54304 5.05634C3.70113 4.78672 3.94183 4.57299 4.23083 4.44564C4.51984 4.31829 4.84239 4.2838 5.15252 4.34711L7.98039 4.90858C8.34022 4.98162 8.71482 4.92275 9.03349 4.7431C9.35217 4.56344 9.59288 4.27542 9.71021 3.93338L10.6278 1.22942C10.7287 0.93594 10.9209 0.681037 11.1773 0.500739C11.4338 0.320441 11.7414 0.223866 12.0567 0.224666H18.0735C18.4015 0.207848 18.7261 0.296958 18.9977 0.478386C19.2693 0.659815 19.473 0.923588 19.5777 1.22942L20.42 3.93338C20.5373 4.27542 20.7781 4.56344 21.0967 4.7431C21.4154 4.92275 21.79 4.98162 22.1498 4.90858L25.0529 4.34711C25.3469 4.3063 25.6466 4.35187 25.9143 4.47808C26.182 4.60429 26.4056 4.80549 26.5571 5.05634L29.5655 10.1688C29.7292 10.4357 29.8028 10.7466 29.7758 11.0571C29.7488 11.3676 29.6225 11.6618 29.4151 11.8975L27.5047 14.0252C27.2636 14.2949 27.1306 14.6415 27.1306 15.0004C27.1306 15.3594 27.2636 15.706 27.5047 15.9756L29.4151 18.1033C29.6225 18.3391 29.7488 18.6333 29.7758 18.9438C29.8028 19.2543 29.7292 19.5652 29.5655 19.8321L26.5571 24.9445C26.399 25.2142 26.1583 25.4279 25.8693 25.5552C25.5803 25.6826 25.2577 25.7171 24.9476 25.6538L22.1197 25.0923C21.7599 25.0193 21.3853 25.0781 21.0666 25.2578C20.748 25.4374 20.5073 25.7255 20.3899 26.0675L19.4724 28.7715C19.3677 29.0773 19.164 29.3411 18.8924 29.5225C18.6208 29.7039 18.2962 29.793 17.9682 29.7762H11.9514C11.6361 29.777 11.3285 29.6804 11.0721 29.5001C10.8156 29.3198 10.6234 29.0649 10.5225 28.7715L9.60491 26.0675C9.48759 25.7255 9.24688 25.4374 8.9282 25.2578C8.60953 25.0781 8.23493 25.0193 7.8751 25.0923L5.04723 25.6538C4.7371 25.7171 4.41455 25.6826 4.12554 25.5552C3.83654 25.4279 3.59583 25.2142 3.43775 24.9445L0.429373 19.8321C0.269669 19.5622 0.201115 19.2495 0.233543 18.9389C0.265972 18.6283 0.397717 18.3358 0.609877 18.1033L2.64053 15.9756ZM4.88177 17.9556L3.67842 19.2854L5.60378 22.5656L7.37872 22.211C8.46206 21.9935 9.58901 22.1742 10.5456 22.719C11.5023 23.2638 12.222 24.1346 12.5682 25.1662L13.1398 26.8211H16.9905L17.532 25.1366C17.8782 24.105 18.5979 23.2342 19.5545 22.6895C20.5111 22.1447 21.6381 21.9639 22.7214 22.1815L24.4964 22.5361L26.4518 19.2706L25.2485 17.9408C24.5085 17.1281 24.0994 16.076 24.0994 14.9857C24.0994 13.8953 24.5085 12.8432 25.2485 12.0305L26.4518 10.7007L24.5264 7.45002L22.7515 7.80464C21.6682 8.02217 20.5412 7.8414 19.5846 7.29664C18.628 6.75189 17.9082 5.88106 17.5621 4.84948L16.9905 3.17982H13.1398L12.5682 4.86426C12.222 5.89584 11.5023 6.76666 10.5456 7.31142C9.58901 7.85617 8.46206 8.03694 7.37872 7.81941L5.60378 7.46479L3.67842 10.745L4.88177 12.0748C5.61345 12.8857 6.01747 13.9317 6.01747 15.0152C6.01747 16.0987 5.61345 17.1448 4.88177 17.9556ZM15.0651 9.09013C16.2551 9.09013 17.4184 9.43676 18.4078 10.0862C19.3973 10.7356 20.1685 11.6587 20.6239 12.7387C21.0793 13.8186 21.1984 15.007 20.9663 16.1535C20.7341 17.3 20.1611 18.3531 19.3196 19.1797C18.4781 20.0062 17.4061 20.5691 16.2389 20.7972C15.0718 21.0252 13.862 20.9082 12.7626 20.4608C11.6632 20.0135 10.7235 19.256 10.0624 18.284C9.40124 17.3121 9.04836 16.1694 9.04836 15.0004C9.04836 13.4329 9.68227 11.9296 10.8106 10.8212C11.939 9.71282 13.4694 9.09013 15.0651 9.09013ZM15.0651 17.9556C15.6601 17.9556 16.2418 17.7823 16.7365 17.4576C17.2312 17.1328 17.6168 16.6713 17.8445 16.1313C18.0722 15.5913 18.1318 14.9972 18.0157 14.4239C17.8996 13.8507 17.6131 13.3241 17.1924 12.9108C16.7716 12.4975 16.2356 12.2161 15.652 12.1021C15.0684 11.988 14.4636 12.0466 13.9139 12.2702C13.3641 12.4939 12.8943 12.8727 12.5637 13.3586C12.2332 13.8446 12.0567 14.416 12.0567 15.0004C12.0567 15.7842 12.3737 16.5358 12.9379 17.09C13.5021 17.6442 14.2672 17.9556 15.0651 17.9556Z" fill="#D3D3D3"/>
</svg>
