<svg width="42" height="42" viewBox="0 0 42 42" fill="none" xmlns="http://www.w3.org/2000/svg">
<g id="ri:checkbox-line">
<path id="Vector" d="M7 5.25H35C35.4641 5.25 35.9093 5.43437 36.2374 5.76256C36.5656 6.09075 36.75 6.53587 36.75 7V35C36.75 35.4641 36.5656 35.9093 36.2374 36.2374C35.9093 36.5656 35.4641 36.75 35 36.75H7C6.53587 36.75 6.09075 36.5656 5.76256 36.2374C5.43437 35.9093 5.25 35.4641 5.25 35V7C5.25 6.53587 5.43437 6.09075 5.76256 5.76256C6.09075 5.43437 6.53587 5.25 7 5.25ZM8.75 8.75V33.25H33.25V8.75H8.75ZM19.2553 28L11.83 20.5747L14.3045 18.1003L19.2553 23.051L29.155 13.1512L31.6295 15.6257L19.2553 28Z" fill="#2B8CA7"/>
</g>
</svg>
