<svg width="34" height="34" viewBox="0 0 34 34" fill="none" xmlns="http://www.w3.org/2000/svg">
<path d="M22.0938 26.375C21.4448 26.375 20.8104 26.1826 20.2708 25.822C19.7312 25.4615 19.3106 24.949 19.0623 24.3494C18.8139 23.7499 18.7489 23.0901 18.8755 22.4536C19.0022 21.8171 19.3147 21.2324 19.7736 20.7736C20.2324 20.3147 20.8171 20.0022 21.4536 19.8755C22.0901 19.7489 22.7499 19.8139 23.3494 20.0623C23.949 20.3106 24.4615 20.7312 24.822 21.2708C25.1826 21.8104 25.375 22.4448 25.375 23.0938C25.374 23.9637 25.028 24.7977 24.4129 25.4129C23.7977 26.028 22.9637 26.374 22.0938 26.375ZM22.0938 21.6875C21.8156 21.6875 21.5437 21.77 21.3125 21.9245C21.0812 22.079 20.901 22.2986 20.7945 22.5556C20.6881 22.8126 20.6603 23.0953 20.7145 23.3681C20.7688 23.6409 20.9027 23.8915 21.0994 24.0881C21.2961 24.2848 21.5466 24.4187 21.8194 24.473C22.0922 24.5272 22.3749 24.4994 22.6319 24.393C22.8889 24.2865 23.1085 24.1063 23.263 23.875C23.4175 23.6438 23.5 23.3719 23.5 23.0938C23.4995 22.7209 23.3512 22.3635 23.0876 22.0999C22.824 21.8363 22.4666 21.688 22.0938 21.6875Z" fill="#2B8CA7"/>
<path d="M22.0938 31.0625C20.5177 31.0625 18.977 30.5951 17.6666 29.7195C16.3561 28.8439 15.3347 27.5994 14.7316 26.1433C14.1285 24.6872 13.9706 23.0849 14.2781 21.5391C14.5856 19.9933 15.3445 18.5734 16.459 17.459C17.5734 16.3445 18.9933 15.5856 20.5391 15.2781C22.0849 14.9706 23.6872 15.1285 25.1433 15.7316C26.5994 16.3347 27.8439 17.3561 28.7195 18.6666C29.5951 19.977 30.0625 21.5177 30.0625 23.0938C30.06 25.2064 29.2197 27.2319 27.7258 28.7258C26.2319 30.2197 24.2064 31.06 22.0938 31.0625ZM22.0938 17C20.8885 17 19.7104 17.3574 18.7082 18.027C17.7061 18.6966 16.9251 19.6483 16.4639 20.7618C16.0026 21.8753 15.882 23.1005 16.1171 24.2826C16.3522 25.4647 16.9326 26.5505 17.7848 27.4027C18.637 28.2549 19.7228 28.8353 20.9049 29.0704C22.087 29.3055 23.3122 29.1849 24.4257 28.7236C25.5392 28.2624 26.4909 27.4814 27.1605 26.4793C27.8301 25.4771 28.1875 24.299 28.1875 23.0938C28.1858 21.4781 27.5432 19.9292 26.4008 18.7867C25.2583 17.6443 23.7094 17.0017 22.0938 17Z" fill="#2B8CA7"/>
<path d="M24.4375 6.6875H21.625V5.75C21.6235 5.25318 21.4255 4.77712 21.0742 4.42581C20.7229 4.0745 20.2468 3.87648 19.75 3.875H12.25C11.7532 3.87648 11.2771 4.0745 10.9258 4.42581C10.5745 4.77712 10.3765 5.25318 10.375 5.75V6.6875H7.5625C7.06568 6.68898 6.58962 6.887 6.23831 7.23831C5.887 7.58962 5.68898 8.06568 5.6875 8.5625V28.25C5.68898 28.7468 5.887 29.2229 6.23831 29.5742C6.58962 29.9255 7.06568 30.1235 7.5625 30.125H12.25V28.25H7.5625V8.5625H10.375V11.375H21.625V8.5625H24.4375V13.25H26.3125V8.5625C26.311 8.06568 26.113 7.58962 25.7617 7.23831C25.4104 6.887 24.9343 6.68898 24.4375 6.6875ZM19.75 9.5H12.25V5.75H19.75V9.5Z" fill="#2B8CA7"/>
</svg>
