<svg width="28" height="28" viewBox="0 0 28 28" fill="none" xmlns="http://www.w3.org/2000/svg">
<path d="M19.6875 22.75C19.0818 22.75 18.4897 22.5704 17.9861 22.2339C17.4824 21.8974 17.0899 21.4191 16.8581 20.8595C16.6263 20.2999 16.5657 19.6841 16.6838 19.09C16.802 18.496 17.0937 17.9503 17.522 17.522C17.9503 17.0937 18.496 16.802 19.09 16.6838C19.6841 16.5657 20.2999 16.6263 20.8595 16.8581C21.4191 17.0899 21.8974 17.4824 22.2339 17.9861C22.5704 18.4897 22.75 19.0818 22.75 19.6875C22.7491 20.4994 22.4261 21.2779 21.852 21.852C21.2779 22.4261 20.4994 22.7491 19.6875 22.75ZM19.6875 18.375C19.4279 18.375 19.1742 18.452 18.9583 18.5962C18.7425 18.7404 18.5743 18.9454 18.4749 19.1852C18.3756 19.4251 18.3496 19.689 18.4002 19.9436C18.4509 20.1982 18.5759 20.432 18.7594 20.6156C18.943 20.7991 19.1768 20.9241 19.4314 20.9748C19.686 21.0254 19.9499 20.9994 20.1898 20.9001C20.4296 20.8008 20.6346 20.6325 20.7788 20.4167C20.923 20.2008 21 19.9471 21 19.6875C20.9995 19.3395 20.8611 19.006 20.6151 18.7599C20.369 18.5139 20.0355 18.3755 19.6875 18.375Z" fill="white"/>
<path d="M19.6875 27.125C18.2165 27.125 16.7785 26.6888 15.5554 25.8716C14.3324 25.0543 13.3791 23.8927 12.8161 22.5337C12.2532 21.1747 12.1059 19.6793 12.3929 18.2365C12.6799 16.7938 13.3882 15.4685 14.4284 14.4284C15.4685 13.3882 16.7938 12.6799 18.2365 12.3929C19.6793 12.1059 21.1747 12.2532 22.5337 12.8161C23.8927 13.3791 25.0543 14.3324 25.8716 15.5554C26.6888 16.7785 27.125 18.2165 27.125 19.6875C27.1227 21.6593 26.3384 23.5498 24.9441 24.9441C23.5498 26.3384 21.6593 27.1227 19.6875 27.125ZM19.6875 14C18.5626 14 17.463 14.3336 16.5277 14.9585C15.5924 15.5835 14.8634 16.4717 14.4329 17.511C14.0025 18.5502 13.8898 19.6938 14.1093 20.7971C14.3287 21.9003 14.8704 22.9138 15.6658 23.7092C16.4612 24.5046 17.4747 25.0463 18.5779 25.2657C19.6812 25.4852 20.8248 25.3725 21.864 24.9421C22.9033 24.5116 23.7915 23.7826 24.4165 22.8473C25.0414 21.912 25.375 20.8124 25.375 19.6875C25.3734 18.1796 24.7736 16.7339 23.7074 15.6676C22.6411 14.6014 21.1954 14.0016 19.6875 14Z" fill="white"/>
<path d="M21.875 4.375H19.25V3.5C19.2486 3.0363 19.0638 2.59198 18.7359 2.26409C18.408 1.9362 17.9637 1.75138 17.5 1.75H10.5C10.0363 1.75138 9.59198 1.9362 9.26409 2.26409C8.9362 2.59198 8.75138 3.0363 8.75 3.5V4.375H6.125C5.6613 4.37638 5.21698 4.5612 4.88909 4.88909C4.5612 5.21698 4.37638 5.6613 4.375 6.125V24.5C4.37638 24.9637 4.5612 25.408 4.88909 25.7359C5.21698 26.0638 5.6613 26.2486 6.125 26.25H10.5V24.5H6.125V6.125H8.75V8.75H19.25V6.125H21.875V10.5H23.625V6.125C23.6236 5.6613 23.4388 5.21698 23.1109 4.88909C22.783 4.5612 22.3387 4.37638 21.875 4.375ZM17.5 7H10.5V3.5H17.5V7Z" fill="white"/>
</svg>
