<svg width="50" height="50" viewBox="0 0 50 50" fill="none" xmlns="http://www.w3.org/2000/svg">
<circle cx="25" cy="25" r="25" fill="#D9D9D9"/>
<path d="M31.5 35C30.8078 35 30.1311 34.7947 29.5555 34.4101C28.9799 34.0256 28.5313 33.4789 28.2664 32.8394C28.0015 32.1999 27.9322 31.4961 28.0673 30.8172C28.2023 30.1383 28.5356 29.5146 29.0251 29.0251C29.5146 28.5356 30.1383 28.2023 30.8172 28.0673C31.4961 27.9322 32.1999 28.0015 32.8394 28.2664C33.4789 28.5313 34.0256 28.9799 34.4101 29.5555C34.7947 30.1311 35 30.8078 35 31.5C34.9989 32.4279 34.6299 33.3176 33.9737 33.9737C33.3176 34.6299 32.4279 34.9989 31.5 35ZM31.5 30C31.2033 30 30.9133 30.088 30.6666 30.2528C30.42 30.4176 30.2277 30.6519 30.1142 30.926C30.0007 31.2001 29.9709 31.5017 30.0288 31.7926C30.0867 32.0836 30.2296 32.3509 30.4393 32.5607C30.6491 32.7704 30.9164 32.9133 31.2074 32.9712C31.4983 33.0291 31.7999 32.9994 32.074 32.8858C32.3481 32.7723 32.5824 32.58 32.7472 32.3334C32.912 32.0867 33 31.7967 33 31.5C32.9995 31.1023 32.8413 30.7211 32.5601 30.4399C32.2789 30.1587 31.8977 30.0005 31.5 30Z" fill="#C19B47"/>
<path d="M31.5 40C29.8189 40 28.1755 39.5015 26.7777 38.5675C25.3798 37.6335 24.2904 36.306 23.647 34.7528C23.0037 33.1996 22.8354 31.4906 23.1633 29.8417C23.4913 28.1929 24.3008 26.6783 25.4896 25.4896C26.6783 24.3008 28.1929 23.4913 29.8417 23.1633C31.4906 22.8354 33.1996 23.0037 34.7528 23.647C36.306 24.2904 37.6335 25.3798 38.5675 26.7777C39.5015 28.1755 40 29.8189 40 31.5C39.9974 33.7535 39.101 35.914 37.5075 37.5075C35.914 39.101 33.7535 39.9974 31.5 40ZM31.5 25C30.2144 25 28.9577 25.3812 27.8888 26.0955C26.8199 26.8097 25.9868 27.8248 25.4948 29.0126C25.0028 30.2003 24.8741 31.5072 25.1249 32.7681C25.3757 34.029 25.9948 35.1872 26.9038 36.0962C27.8129 37.0052 28.971 37.6243 30.2319 37.8751C31.4928 38.1259 32.7997 37.9972 33.9874 37.5052C35.1752 37.0133 36.1903 36.1801 36.9046 35.1112C37.6188 34.0423 38 32.7856 38 31.5C37.9982 29.7767 37.3127 28.1244 36.0942 26.9059C34.8756 25.6873 33.2233 25.0019 31.5 25Z" fill="#C19B47"/>
<path d="M34 14H31V13C30.9984 12.4701 30.7872 11.9623 30.4125 11.5875C30.0377 11.2128 29.5299 11.0016 29 11H21C20.4701 11.0016 19.9623 11.2128 19.5875 11.5875C19.2128 11.9623 19.0016 12.4701 19 13V14H16C15.4701 14.0016 14.9623 14.2128 14.5875 14.5875C14.2128 14.9623 14.0016 15.4701 14 16V37C14.0016 37.5299 14.2128 38.0377 14.5875 38.4125C14.9623 38.7872 15.4701 38.9984 16 39H21V37H16V16H19V19H31V16H34V21H36V16C35.9984 15.4701 35.7872 14.9623 35.4125 14.5875C35.0377 14.2128 34.5299 14.0016 34 14ZM29 17H21V13H29V17Z" fill="#C19B47"/>
</svg>
