<svg width="32" height="32" viewBox="0 0 32 32" fill="none" xmlns="http://www.w3.org/2000/svg">
<path d="M15.9667 29.3334C14.1223 29.3334 12.389 28.9832 10.7667 28.2827C9.14453 27.5832 7.73341 26.6334 6.53341 25.4334C5.33341 24.2334 4.38897 22.8223 3.70008 21.2001C3.01119 19.5779 2.66675 17.8445 2.66675 16.0001C2.66675 14.1556 3.01697 12.4223 3.71741 10.8001C4.41697 9.17786 5.36675 7.76675 6.56675 6.56675C7.76675 5.36675 9.17786 4.41653 10.8001 3.71608C12.4223 3.01653 14.1556 2.66675 16.0001 2.66675C17.0667 2.66675 18.1281 2.80008 19.1841 3.06675C20.2392 3.33341 21.2667 3.7223 22.2667 4.23341C22.6001 4.41119 22.8059 4.68319 22.8841 5.04941C22.9614 5.41653 22.8779 5.75564 22.6334 6.06675C22.4112 6.35564 22.1223 6.54453 21.7667 6.63341C21.4112 6.7223 21.0779 6.67786 20.7667 6.50008C20.0112 6.1223 19.2334 5.83341 18.4334 5.63341C17.6334 5.43341 16.8223 5.33341 16.0001 5.33341C13.0445 5.33341 10.5281 6.37208 8.45075 8.44941C6.37253 10.5276 5.33341 13.0445 5.33341 16.0001C5.33341 18.9556 6.37253 21.4725 8.45075 23.5507C10.5281 25.6281 13.0445 26.6667 16.0001 26.6667C16.6445 26.6667 17.2556 26.6165 17.8334 26.5161C18.4112 26.4165 18.9667 26.2667 19.5001 26.0667C19.789 25.9556 20.0725 25.9503 20.3507 26.0507C20.6281 26.1503 20.8779 26.3223 21.1001 26.5667C21.389 26.9001 21.4725 27.2725 21.3507 27.6841C21.2281 28.0947 20.9445 28.389 20.5001 28.5667C19.8112 28.8112 19.089 29.0001 18.3334 29.1334C17.5779 29.2667 16.789 29.3334 15.9667 29.3334ZM13.2001 21.2001L9.36675 17.3667C9.1223 17.1223 9.00586 16.8165 9.01741 16.4494C9.02808 16.0832 9.15564 15.7779 9.40008 15.5334C9.64453 15.289 9.95564 15.1667 10.3334 15.1667C10.7112 15.1667 11.0223 15.289 11.2667 15.5334L14.1334 18.4001L26.5667 5.93341C26.8112 5.68897 27.117 5.57208 27.4841 5.58275C27.8503 5.5943 28.1556 5.7223 28.4001 5.96675C28.6445 6.21119 28.7667 6.5223 28.7667 6.90008C28.7667 7.27786 28.6445 7.58897 28.4001 7.83341L15.0667 21.2001C14.8223 21.4445 14.5112 21.5667 14.1334 21.5667C13.7556 21.5667 13.4445 21.4445 13.2001 21.2001ZM26.6667 26.6667C26.289 26.6667 25.9725 26.5387 25.7174 26.2827C25.4614 26.0276 25.3334 25.7112 25.3334 25.3334V22.6667H22.6667C22.289 22.6667 21.9725 22.5387 21.7174 22.2827C21.4614 22.0276 21.3334 21.7112 21.3334 21.3334C21.3334 20.9556 21.4614 20.6387 21.7174 20.3827C21.9725 20.1276 22.289 20.0001 22.6667 20.0001H25.3334V17.3334C25.3334 16.9556 25.4614 16.6387 25.7174 16.3827C25.9725 16.1276 26.289 16.0001 26.6667 16.0001C27.0445 16.0001 27.361 16.1276 27.6161 16.3827C27.8721 16.6387 28.0001 16.9556 28.0001 17.3334V20.0001H30.6667C31.0445 20.0001 31.361 20.1276 31.6161 20.3827C31.8721 20.6387 32.0001 20.9556 32.0001 21.3334C32.0001 21.7112 31.8721 22.0276 31.6161 22.2827C31.361 22.5387 31.0445 22.6667 30.6667 22.6667H28.0001V25.3334C28.0001 25.7112 27.8721 26.0276 27.6161 26.2827C27.361 26.5387 27.0445 26.6667 26.6667 26.6667Z" fill="#2B8CA7"/>
</svg>
