<svg width="40" height="40" viewBox="0 0 40 40" fill="none" xmlns="http://www.w3.org/2000/svg">
<path d="M20 6.25001C20.8006 6.22965 21.5771 6.525 22.1618 7.07227C22.7465 7.61954 23.0924 8.37482 23.125 9.17501C23.1121 9.57233 23.021 9.9632 22.8569 10.3253C22.6928 10.6874 22.459 11.0136 22.1688 11.2852C21.8785 11.5569 21.5376 11.7687 21.1655 11.9085C20.7933 12.0483 20.3973 12.1134 20 12.1C19.6027 12.1134 19.2067 12.0483 18.8345 11.9085C18.4624 11.7687 18.1215 11.5569 17.8312 11.2852C17.541 11.0136 17.3072 10.6874 17.1431 10.3253C16.979 9.9632 16.8879 9.57233 16.875 9.17501C16.9076 8.37482 17.2535 7.61954 17.8382 7.07227C18.4229 6.525 19.1994 6.22965 20 6.25001ZM20 27.9C20.5684 27.939 21.113 28.1431 21.567 28.4872C22.021 28.8314 22.3646 29.3006 22.5556 29.8373C22.7467 30.374 22.7768 30.9548 22.6424 31.5084C22.5079 32.0621 22.2147 32.5644 21.7988 32.9537C21.3829 33.343 20.8623 33.6023 20.301 33.6999C19.7398 33.7975 19.1622 33.7291 18.6393 33.503C18.1164 33.2769 17.6708 32.9031 17.3574 32.4273C17.044 31.9516 16.8763 31.3947 16.875 30.825C16.8879 30.4277 16.979 30.0368 17.1431 29.6747C17.3072 29.3126 17.541 28.9865 17.8312 28.7148C18.1215 28.4431 18.4624 28.2314 18.8345 28.0916C19.2067 27.9517 19.6027 27.8867 20 27.9ZM20 17.075C20.7758 17.075 21.5197 17.3832 22.0683 17.9317C22.6168 18.4803 22.925 19.2243 22.925 20C22.925 20.7758 22.6168 21.5198 22.0683 22.0683C21.5197 22.6168 20.7758 22.925 20 22.925C19.2242 22.925 18.4803 22.6168 17.9317 22.0683C17.3832 21.5198 17.075 20.7758 17.075 20C17.075 19.2243 17.3832 18.4803 17.9317 17.9317C18.4803 17.3832 19.2242 17.075 20 17.075Z" fill="white"/>
</svg>
