<svg width="30" height="15" viewBox="0 0 30 15" fill="none" xmlns="http://www.w3.org/2000/svg">
<path d="M8.23232 14.7778C5.97643 14.7778 4.05892 14.0648 2.4798 12.6389C0.900673 11.213 0.111111 9.48148 0.111111 7.44445C0.111111 5.40741 0.900673 3.67593 2.4798 2.25C4.05892 0.824077 5.97643 0.111115 8.23232 0.111115H21.7677C24.0236 0.111115 25.9411 0.824077 27.5202 2.25C29.0993 3.67593 29.8889 5.40741 29.8889 7.44445C29.8889 9.48148 29.0993 11.213 27.5202 12.6389C25.9411 14.0648 24.0236 14.7778 21.7677 14.7778H8.23232ZM8.23232 12.3333H21.7677C23.2566 12.3333 24.5311 11.8546 25.5914 10.8972C26.6517 9.93982 27.1818 8.78889 27.1818 7.44445C27.1818 6.1 26.6517 4.94908 25.5914 3.99167C24.5311 3.03426 23.2566 2.55556 21.7677 2.55556H8.23232C6.74343 2.55556 5.46886 3.03426 4.40859 3.99167C3.34832 4.94908 2.81818 6.1 2.81818 7.44445C2.81818 8.78889 3.34832 9.93982 4.40859 10.8972C5.46886 11.8546 6.74343 12.3333 8.23232 12.3333ZM8.23232 11.1111C9.36027 11.1111 10.319 10.7546 11.1086 10.0417C11.8981 9.32871 12.2929 8.46297 12.2929 7.44445C12.2929 6.42593 11.8981 5.56019 11.1086 4.84723C10.319 4.13426 9.36027 3.77778 8.23232 3.77778C7.10438 3.77778 6.14562 4.13426 5.35606 4.84723C4.5665 5.56019 4.17172 6.42593 4.17172 7.44445C4.17172 8.46297 4.5665 9.32871 5.35606 10.0417C6.14562 10.7546 7.10438 11.1111 8.23232 11.1111Z" fill="#34675C"/>
</svg>
