<svg width="29" height="30" viewBox="0 0 29 30" fill="none" xmlns="http://www.w3.org/2000/svg">
<path d="M14.9552 26.82C14.2072 27.0914 13.3821 27.0561 12.66 26.7218C11.9378 26.3874 11.3772 25.7811 11.1002 25.035C10.9598 24.6661 10.8948 24.2728 10.9089 23.8783C10.923 23.4839 11.016 23.0962 11.1823 22.7383C11.3487 22.3804 11.5851 22.0594 11.8776 21.7943C12.1701 21.5293 12.5127 21.3255 12.8852 21.195C14.4452 20.625 16.1702 21.42 16.7402 22.965C17.0117 23.7131 16.9764 24.5381 16.642 25.2603C16.3076 25.9824 15.7013 26.5431 14.9552 26.82ZM11.8502 18.375C8.74524 19.5 7.14024 22.95 8.25024 26.07C8.8143 27.5608 9.94263 28.7697 11.3911 29.435C12.8396 30.1002 14.4918 30.1685 15.9902 29.625C19.0952 28.5 20.6852 25.05 19.5602 21.945C18.4202 18.825 14.9552 17.25 11.8502 18.375ZM20.9102 3.87L11.0552 7.5L13.1252 13.11L22.9802 9.495M27.4802 17.43L20.3102 20.055C20.5652 20.49 20.7752 20.94 20.9552 21.42C21.1352 21.9 21.2552 22.395 21.3302 22.875L28.5002 20.25M26.3102 9.87L13.6352 14.52L14.3702 16.5C16.2452 16.635 18.0002 17.46 19.3352 18.825L28.3802 15.51M0.000244141 0V3H4.63524L9.99024 17.625C10.8453 17.0932 11.7997 16.7411 12.7952 16.59L6.75024 0" fill="#D3D3D3"/>
</svg>
