<svg width="29" height="29" viewBox="0 0 29 29" fill="none" xmlns="http://www.w3.org/2000/svg">
<path d="M14.5598 23.9103C15.1053 23.9103 15.5666 23.7217 15.9437 23.3446C16.3208 22.9674 16.5089 22.5067 16.5079 21.9623C16.5079 21.4168 16.3193 20.9555 15.9422 20.5784C15.565 20.2013 15.1042 20.0132 14.5598 20.0143C14.0144 20.0143 13.5531 20.2028 13.176 20.58C12.7988 20.9571 12.6108 21.4179 12.6118 21.9623C12.6118 22.5077 12.8004 22.969 13.1775 23.3461C13.5547 23.7233 14.0154 23.9113 14.5598 23.9103ZM13.1573 17.9104H16.0403C16.0403 16.9754 16.1442 16.2871 16.352 15.8455C16.5598 15.404 17.0013 14.8456 17.6767 14.1702C18.5857 13.2612 19.2283 12.5012 19.6044 11.8903C19.9805 11.2794 20.1691 10.5849 20.1701 9.8067C20.1701 8.43011 19.7026 7.32001 18.7675 6.47639C17.8325 5.63277 16.5728 5.21044 14.9884 5.2094C13.5599 5.2094 12.3459 5.56005 11.3464 6.26133C10.347 6.96261 9.6519 7.93662 9.26126 9.18334L11.8326 10.1963C12.0144 9.49502 12.3781 8.93036 12.9235 8.50232C13.469 8.07427 14.1053 7.85973 14.8326 7.8587C15.5338 7.8587 16.1183 8.04726 16.5858 8.4244C17.0533 8.80153 17.2871 9.30126 17.2871 9.92358C17.2871 10.3651 17.1442 10.8327 16.8585 11.3262C16.5728 11.8196 16.0923 12.3651 15.417 12.9625C14.5598 13.7157 13.9687 14.4367 13.6435 15.1255C13.3183 15.8144 13.1562 16.7427 13.1573 17.9104ZM3.651 28.5855C2.79387 28.5855 2.05986 28.2801 1.44897 27.6692C0.838071 27.0583 0.533143 26.3248 0.534182 25.4687V3.651C0.534182 2.79387 0.83963 2.05986 1.45053 1.44897C2.06142 0.838071 2.79491 0.533143 3.651 0.534182H25.4687C26.3258 0.534182 27.0598 0.83963 27.6707 1.45053C28.2816 2.06142 28.5865 2.79491 28.5855 3.651V25.4687C28.5855 26.3258 28.2801 27.0598 27.6692 27.6707C27.0583 28.2816 26.3248 28.5865 25.4687 28.5855H3.651ZM3.651 25.4687H25.4687V3.651H3.651V25.4687Z" fill="#2B8CA7"/>
</svg>
