<svg width="36" height="36" viewBox="0 0 36 36" fill="none" xmlns="http://www.w3.org/2000/svg">
<path d="M7.5 24H22.5L17.325 17.25L13.875 21.75L11.55 18.75L7.5 24ZM6 30C5.175 30 4.4685 29.706 3.8805 29.118C3.2925 28.53 2.999 27.824 3 27V9C3 8.175 3.294 7.4685 3.882 6.8805C4.47 6.2925 5.176 5.999 6 6H24C24.825 6 25.5315 6.294 26.1195 6.882C26.7075 7.47 27.001 8.176 27 9V15.75L33 9.75V26.25L27 20.25V27C27 27.825 26.706 28.5315 26.118 29.1195C25.53 29.7075 24.824 30.001 24 30H6Z" fill="#D3D3D3"/>
</svg>
