<svg width="42" height="34" viewBox="0 0 42 34" fill="none" xmlns="http://www.w3.org/2000/svg">
<path d="M6.41669 25.3333H27.25L20.0625 15.9583L15.2709 22.2083L12.0417 18.0417L6.41669 25.3333ZM4.33336 33.6667C3.18752 33.6667 2.20627 33.2583 1.38961 32.4417C0.57294 31.625 0.165302 30.6445 0.166691 29.5V4.50001C0.166691 3.35418 0.575024 2.37293 1.39169 1.55626C2.20836 0.739597 3.18891 0.331958 4.33336 0.333347H29.3334C30.4792 0.333347 31.4604 0.74168 32.2771 1.55835C33.0938 2.37501 33.5014 3.35557 33.5 4.50001V13.875L41.8334 5.54168V28.4583L33.5 20.125V29.5C33.5 30.6458 33.0917 31.6271 32.275 32.4438C31.4584 33.2604 30.4778 33.6681 29.3334 33.6667H4.33336Z" fill="#34675C"/>
</svg>
