<svg width="40" height="38" viewBox="0 0 40 38" fill="none" xmlns="http://www.w3.org/2000/svg">
<path d="M17.7539 26.2834L29.3534 15.1209L27.05 12.9042L17.7539 21.85L13.0647 17.3375L10.7612 19.5542L17.7539 26.2834ZM20.0573 34.8334C17.7813 34.8334 15.6423 34.4175 13.6405 33.5857C11.6387 32.755 9.8974 31.6271 8.4166 30.2021C6.9358 28.7771 5.76378 27.1014 4.90052 25.175C4.03618 23.2486 3.604 21.1903 3.604 19C3.604 16.8097 4.03618 14.7514 4.90052 12.825C5.76378 10.8986 6.9358 9.22294 8.4166 7.79794C9.8974 6.37294 11.6387 5.24455 13.6405 4.41277C15.6423 3.58205 17.7813 3.16669 20.0573 3.16669C22.3334 3.16669 24.4723 3.58205 26.4741 4.41277C28.4759 5.24455 30.2172 6.37294 31.698 7.79794C33.1788 9.22294 34.3509 10.8986 35.2141 12.825C36.0785 14.7514 36.5106 16.8097 36.5106 19C36.5106 21.1903 36.0785 23.2486 35.2141 25.175C34.3509 27.1014 33.1788 28.7771 31.698 30.2021C30.2172 31.6271 28.4759 32.755 26.4741 33.5857C24.4723 34.4175 22.3334 34.8334 20.0573 34.8334ZM20.0573 31.6667C23.7319 31.6667 26.8443 30.4396 29.3946 27.9854C31.9448 25.5313 33.22 22.5361 33.22 19C33.22 15.4639 31.9448 12.4688 29.3946 10.0146C26.8443 7.56044 23.7319 6.33335 20.0573 6.33335C16.3827 6.33335 13.2703 7.56044 10.7201 10.0146C8.1698 12.4688 6.89467 15.4639 6.89467 19C6.89467 22.5361 8.1698 25.5313 10.7201 27.9854C13.2703 30.4396 16.3827 31.6667 20.0573 31.6667Z" fill="white"/>
</svg>
